<svg width="8.147" height="2166.708" xmlns="http://www.w3.org/2000/svg"><path d="M5.205.034c-2.063 1.205-2.51 3.884-2.506 6.093-.112 16.327-.436 32.653-.581 48.98-.912 76.677-1.216 153.367-.131 230.045.748 69.119 1.738 138.256.049 207.37C1.099 542.273.186 592.037.809 641.8c-.38 30.93-1.137 61.864-.651 92.798-.017 65.918 1.617 131.823 1.806 197.74.061 18.726-.01 37.452.272 56.177.404 36.225 1.224 72.45 1.001 108.68-.509 44.798-1.883 89.59-1.573 134.396-.032 54.75-.82 109.496-1.156 164.244-.098 41.945.745 83.883 1.587 125.818.088 19.534-1.082 39.047-1.102 58.58-.285 34.16.668 68.312 1.285 102.462 1.052 51.818 2.018 103.66.638 155.482-1.435 67.994-2.824 136.005-1.95 204.017.433 41.063.473 82.147 2.436 123.176.599 2.271 4.612 1.428 4.383-.856-.906-31.634-1.45-63.278-1.808-94.922-.742-66.904-.329-133.817.981-200.71 1.138-63.754 1.954-127.54.055-191.288-1.338-50.356-2.639-100.781-.052-151.12-1.154-44.386-2.038-88.786-1.645-133.189.258-58.525 1.1-117.045 1.25-175.57.191-41.866.863-83.726 1.437-125.587.287-49.289-1.274-98.564-1.34-147.851-.273-48.344-.713-96.687-1.41-145.027a5148.19 5148.19 0 01-.454-65.383c-.373-28.121-.09-56.245.289-84.365.248-22.422-.1-44.846.181-67.268.442-45.196 1.653-90.381 2.14-135.578.41-33.57.376-67.145-.16-100.714-1.103-113.335-2.243-226.703.758-340.02-.034-1.977.18-4.596-1.832-5.728-.292-.162-.64-.245-.97-.16z"/></svg>