<svg viewBox="0 0 500 500" xmlns="http://www.w3.org/2000/svg"><path fill-rule="evenodd" clip-rule="evenodd" d="M184.631 33.728c5.032-5.894 4.761-14.761-.812-20.335-5.858-5.857-15.356-5.857-21.213 0-5.111 5.11-6.915 11.977-7.718 15.318-.457 1.905-.819 3.803-1.093 5.24l-.001.002-.051.27c-.321 1.677-.501 2.56-.657 3.141l-1.002 3.72c-4.925 18.258-10.164 37.68-11.598 58.572-1.366 19.907.553 44.202 15.655 63.672 3.995 5.151 9.02 9.42 14.597 12.754-8.136 27.229-16.457 54.228-24.799 81.299v.002l-.001.003c-8.573 27.817-17.168 55.708-25.61 84-10.108 33.877-20.122 68.661-27.842 103.714-.35 1.588-.785 3.395-1.257 5.357-1.568 6.511-3.546 14.728-4.177 22.297-.688 8.256 5.447 15.506 13.702 16.194 8.256.688 15.506-5.447 16.194-13.702.424-5.081 1.592-9.946 2.999-15.807a425.14 425.14 0 001.837-7.886c7.468-33.91 17.211-67.803 27.292-101.589 8.226-27.57 16.795-55.382 25.386-83.269 8.416-27.317 16.854-54.706 25.014-82.008 1.385.056 2.759.059 4.118.01 37.485-1.355 65.937-30.131 79.06-58.94a287.165 287.165 0 0018.023-52.381c1.144-4.769 1.889-9.44 2.533-13.496l.024-.151c.661-4.162 1.221-7.69 2.018-11.144 1.863-8.072-3.171-16.126-11.243-17.989-8.072-1.863-16.126 3.171-17.989 11.243-1.036 4.49-1.739 8.928-2.353 12.8l-.086.537c-.661 4.168-1.244 7.731-2.076 11.199-3.608 15.035-8.432 29.407-14.622 43.522a70.408 70.408 0 00-.758-.219 112.252 112.252 0 00-4.827-1.231c-.562-.131-1.071-.247-1.458-.335l-.004-.001-.177-.041-.392-.09-.064-.015c-1.894-.508-3.611-.948-5.207-1.357-2.12-.543-4.028-1.032-5.856-1.553 1.481-4.363 3.002-8.712 4.547-13.128 2.46-7.033 4.981-14.239 7.495-21.943 1.228-3.76 2.263-7.21 3.234-10.443v-.002c2.138-7.121 3.962-13.2 6.837-19.27 3.546-7.486.352-16.43-7.135-19.977-7.487-3.546-16.431-.352-19.977 7.135-3.906 8.247-6.754 17.723-9.143 25.674-.825 2.745-1.595 5.307-2.335 7.575-2.087 6.392-4.434 13.124-6.84 20.023a1710.37 1710.37 0 00-5.177 14.993 46.76 46.76 0 01-.84-.354 270.16 270.16 0 00-1.652-.71c4.167-12.392 8.282-24.525 12.829-36.526 1.446-3.815 2.629-7.778 3.631-11.137l.001-.001v-.002l.01-.033c.128-.43.253-.85.376-1.257.954-3.178 1.789-5.84 2.71-8.212a14.925 14.925 0 002.41-8.157c0-.302-.002-.671-.012-1.039l-.001-.018a17.224 17.224 0 00-.23-2.382 15.061 15.061 0 00-3.095-6.893c-2.064-2.576-7.218-6.825-14.665-5.331-5.478 1.099-8.331 4.772-8.903 5.509l-.004.005c-1.53 1.97-2.204 3.923-2.25 4.056l-.002.007c-.196.532-.324.97-.374 1.143l-.151.528c-1.761 4.238-3.075 8.522-4.167 12.16l-.397 1.325c-1.045 3.492-1.904 6.364-2.941 9.1-4.676 12.344-8.922 24.839-13.049 37.111l-.462-.116h-.001c-.33-.083-.617-.155-.933-.238l-.151-.04a15.08 15.08 0 00-4.137-3.106c2.06-10.664 4.947-21.388 8.045-32.897l.818-3.04c.483-1.799.858-3.76 1.129-5.18l.029-.15c.31-1.623.554-2.9.842-4.1.232-.967.429-1.601.572-1.99zm.129-.319zm14.355-4.542c.001-.008.004.07.006.255a3.9 3.9 0 01-.006-.255zm-23.524 54.785zM251.425 324.591a942.372 942.372 0 014.855-14.821 15.059 15.059 0 012.461-7.245c3.536-10.312 7.21-20.641 10.848-30.871l.001-.002.001-.003.003-.01.001-.003c4.179-11.75 8.311-23.369 12.134-34.678 15.582-46.096 31.864-91.905 48.332-137.575 5.181-14.368 9.08-28.963 13.173-44.282l.005-.02.008-.03c1.102-4.122 2.217-8.296 3.375-12.532l-.002.009.069-.281c.053-.22.119-.5.203-.863l.142-.612c.139-.604.307-1.328.486-2.085.493-2.087 1.153-4.773 1.937-7.46.744-2.545 1.78-5.729 3.14-8.547.659-1.367 1.716-3.331 3.297-5.206 1.184-1.403 4.214-4.624 9.238-5.788a14.966 14.966 0 015.197-1.582c8.23-.943 15.667 4.965 16.61 13.195.696 6.07 1.644 12.105 2.649 18.504v.001c.172 1.095.346 2.2.52 3.318 1.169 7.498 2.35 15.453 3.011 23.588 1.647 20.265 1.903 40.679 2.152 60.481.063 4.976.125 9.913.209 14.8.09 5.314.087 10.189.084 14.915v.002c-.005 6.608-.009 12.924.245 19.735.03.8.12 1.787.274 3.478.138 1.509.318 3.502.391 5.574.131 3.718.075 10.138-3.004 16.198-2.422 4.766-5.876 8.571-8.148 11.015a497.63 497.63 0 01-1.674 1.789l-.001.002c-1.701 1.812-2.696 2.872-3.539 4.04-7.108 9.855-15.575 18.851-23.19 26.942-.842.895-1.673 1.778-2.491 2.65-7.368 7.856-15.215 15.305-22.688 22.399a4032.352 4032.352 0 00-3.146 2.988c-8.54 8.127-16.536 15.897-23.699 24.14-3.778 4.348-8.922 10.079-14.217 14.607-.334.286-.728.662-1.393 1.331l-.329.334-.003.003c-.571.579-1.402 1.422-2.217 2.188a37.517 37.517 0 01-2.377 2.061 924.727 924.727 0 00-4.342 13.296c-3.54 11.139-7.164 21.482-10.705 31.586-5.08 14.499-9.988 28.507-14.229 43.669-2.071 7.405-4.447 14.768-6.715 21.796l-.016.05c-.513 1.59-1.021 3.163-1.518 4.715-2.753 8.596-5.26 16.772-7.155 24.966-1.594 6.893-4.049 13.372-6.118 18.832l-.005.014c-.29.765-.572 1.51-.843 2.234-2.909 7.756-11.555 11.686-19.312 8.778-7.757-2.909-11.687-11.555-8.778-19.312.31-.828.613-1.63.907-2.41l.003-.009c2.126-5.636 3.812-10.103 4.918-14.886 2.192-9.479 5.024-18.651 7.813-27.357.546-1.707 1.089-3.389 1.626-5.054 2.254-6.989 4.405-13.658 6.302-20.438 4.36-15.589 9.979-31.7 15.403-47.251v-.002c3.487-9.996 6.892-19.761 9.831-29.008zM358.282 109.56c2.226-6.173 4.245-12.424 6.127-18.677.531 12.593.692 25.263.856 38.186v.009c.065 5.099.13 10.237.219 15.425.07 4.112.073 8.624.075 13.286v.007c.004 7.276.008 14.915.271 21.963.061 1.647.222 3.402.345 4.739l.032.351c.142 1.553.245 2.772.285 3.901.034.968.009 1.609-.031 2.006-.452.706-1.333 1.813-3.112 3.726l-.412.44-.529.56-.004.005c-1.82 1.925-4.519 4.78-6.627 7.702-5.896 8.174-12.994 15.726-20.825 24.057-.795.845-1.598 1.699-2.408 2.563-6.727 7.173-13.895 13.979-21.427 21.131l-.002.002-3.202 3.043-.441.42c.895-2.596 1.788-5.208 2.678-7.841 15.486-45.815 31.69-91.406 48.132-137.004zm8.132 81.532l.005-.021a.135.135 0 01-.005.021z"/></svg>