<svg viewBox="0 0 500 500" xmlns="http://www.w3.org/2000/svg"><path d="M185.209 391.312c-1.895-3.032-4.835-5.692-8.758-7.096-3.691-1.322-7.077-1.114-9.429-.64-4.289.862-7.585 3.093-9.236 4.311-1.973 1.457-3.678 3.061-4.941 4.373-1.07 1.112-2.565 2.783-3.659 4.52-1.6 2.541-3.75 7.053-4.409 12.064-.33 2.509-.517 6.83 1.547 11.337 1.89 4.128 5.113 7.204 9.016 8.984.584.492 1.213.946 1.886 1.355 7.077 4.306 16.305 2.058 20.61-5.019l.002-.003.037-.059.132-.202c.118-.181.267-.404.462-.693l.336-.496.007-.011c.323-.478.718-1.06 1.104-1.639 1.099-1.65 2.529-3.861 3.836-6.265 1.24-2.278 2.774-5.451 3.632-8.979.772-3.175 1.719-9.612-2.175-15.842z"/><path fill-rule="evenodd" clip-rule="evenodd" d="M352.726 15c5.734 0 10.716 3.217 13.241 7.944.405.314.863.681 1.306 1.07 6.904 6.068 15.681 14.543 21.002 25.374 11.69 23.797 11.093 50.219 6.472 72.905-3.611 17.725-10.333 39.282-22.721 55.851-12.086 16.164-32.05 26.684-48.99 31.495-1.417.402-4.207 1.048-6.926 1.678h-.002l-.003.001h-.002l-.002.001c-1.135.263-2.257.523-3.262.761-.804.19-1.587.379-2.335.563l-.522 1.282c-.566 1.399-1.117 2.776-1.6 3.981l-.002.007-.391.976-.001.002-.001.002c-.419 1.048-.953 2.382-1.26 3.054-5.119 11.185-7.592 18.82-10.652 28.27-1.698 5.243-3.577 11.045-6.189 18.321-3.831 10.671-7.282 21.508-10.83 32.648l-.578 1.818c-3.722 11.683-7.571 23.681-11.952 35.557-14.691 39.825-35.014 80.048-62.435 113.903-5.232 6.461-12.284 15.147-20.918 21.806-8.923 6.883-20.682 12.502-35.131 11.097-26.8-2.606-41.252-24.041-44.279-45.685-2.293-16.397.899-32.68 5.374-47.117 3.499-11.289 8.152-22.506 12.207-32.279 1.084-2.614 2.126-5.124 3.091-7.506 13.823-34.101 30.171-66.865 46.573-99.009a11372.3 11372.3 0 016.768-13.234l.004-.009v-.001c13.484-26.341 26.786-52.328 38.874-78.873-15.433-17.607-21.015-38.593-18.702-62.3 1.891-19.388 11.842-34.532 20.153-46.74.164-.24.487-.74.91-1.397l.002-.002c1.211-1.877 3.25-5.037 4.807-7.14 2.374-3.209 6.423-8.13 12.358-11.098a14.978 14.978 0 0113.425.003c1.362.023 2.444.158 3.015.23h.013c1.873.234 3.821.626 5.6 1.045 3.557.839 7.516 2.048 10.748 3.294 1.539.593 3.43 1.391 5.147 2.37.772.44 2.239 1.323 3.693 2.684.729.683 1.961 1.95 3.021 3.825 1.074 1.899 2.454 5.309 1.863 9.642-.249 1.828-.403 3.766-.574 6.145l-.048.675c-.149 2.107-.326 4.595-.615 7.089-.806 6.948-1.92 13.81-2.982 20.306l-.08.489c-1.02 6.246-1.986 12.156-2.715 18.04 1.445.494 2.849.996 4.203 1.489 1.591.58 3.069 1.13 4.482 1.655l.001.001.003.001c2.868 1.067 5.467 2.034 8.197 2.945 2.608.869 4.706 1.631 6.651 2.337 2.674.971 5.06 1.837 8.08 2.732.712.211 1.395.401 2.049.57.52-1.3 1.036-2.568 1.533-3.79l.002-.004.011-.027.719-1.769c1.702-4.201 3.164-7.942 4.318-11.685 4.04-13.11 7.28-25.918 10.624-39.14 2.029-8.02 4.096-16.194 6.404-24.678v-.001c.005-.021.072-.303.195-1.142l.097-.696c.106-.765.265-1.92.372-2.602.344-2.202 1.148-7.184 4.153-11.691a14.93 14.93 0 015.439-4.928 14.938 14.938 0 019.5-3.391zm-107.69 51.236l.452-.702c2.025.682 4.144.91 6.213.71l-.031.28c-.714 6.151-1.715 12.35-2.789 18.923l-.117.716c-1.007 6.158-2.069 12.657-2.876 19.226-.006.017-.024.099-.062.272-.045.204-.117.535-.23 1.035l-.001.003a96.976 96.976 0 00-.896 4.317c-.271 1.521-.625 3.826-.618 6.214.004 1.182.091 3.042.643 5.124.51 1.925 1.856 5.709 5.599 8.703l.031.025c.127.102.505.406.883.685.513.379 1.314.936 2.364 1.481 1.977 1.027 3.823 1.456 4.404 1.591l.075.017c3.555.837 7.303 2.089 11.55 3.636 1.162.423 2.408.886 3.704 1.369h.002c3.118 1.16 6.528 2.428 9.756 3.504 1.129.376 2.665.926 4.408 1.55 3.462 1.24 7.745 2.773 11.288 3.823 5.984 1.773 13.427 3.405 21.346 2.772 4.923-.394 8.786-2.909 11.227-5.926 2.043-2.524 2.853-5.077 3.166-6.17.208-.725.36-1.434.453-1.906 1.092-3.033 2.308-6.024 3.657-9.341l.404-.993.388-.955c1.73-4.271 3.618-9.04 5.182-14.115 4.215-13.677 7.843-27.987 11.357-41.846.996-3.927 1.982-7.819 2.97-11.649a29.583 29.583 0 012.411 4.006c7.615 15.503 7.935 34.383 4.002 53.69-3.264 16.021-8.857 32.512-17.352 43.875-6.863 9.179-20.119 16.897-33.159 20.6-.706.201-2.126.528-4.141.994-1.341.309-2.944.68-4.777 1.114-3.44.815-9.014 2.146-12.244 3.53l-4.521 1.937-2.496 4.239c-.89 1.512-1.801 3.629-2.32 4.84a304.742 304.742 0 00-2.165 5.229c-.592 1.462-1.17 2.908-1.653 4.114l-.001.002-.289.724c-.301.751-.506 1.257-.632 1.569l-.005.013-.159.398c-.001.005.002-.002.01-.02-5.8 12.675-9.115 22.851-12.539 33.359v.001c-1.634 5.015-3.293 10.105-5.258 15.579-4.021 11.202-7.626 22.522-11.134 33.539l-.623 1.956c-3.737 11.729-7.396 23.122-11.513 34.281-13.922 37.74-32.821 74.808-57.602 105.405-5.51 6.804-10.493 12.742-15.926 16.932-5.144 3.967-9.484 5.423-13.907 4.993-9.018-.877-15.749-7.673-17.471-19.981-1.414-10.114.422-21.51 4.318-34.081 3.045-9.823 6.978-19.315 10.958-28.918 1.166-2.812 2.335-5.635 3.488-8.478 13.291-32.789 29.114-64.546 45.492-96.643 2.227-4.363 4.465-8.736 6.709-13.118l.004-.008c14.172-27.685 28.549-55.768 41.473-84.525a14.933 14.933 0 001.25-7.61c1.97-5.464.653-11.815-3.853-16.04-12.571-11.786-17.296-25.461-15.503-43.839 1.066-10.927 6.634-20.345 15.093-32.769a148.174 148.174 0 002.123-3.246l.001-.001.009-.015zm90.091 70.495z"/></svg>