<svg viewBox="0 0 500 500" xmlns="http://www.w3.org/2000/svg"><path fill-rule="evenodd" clip-rule="evenodd" d="M187.554 181.726c3.478-11.274 8.389-25.17 11.845-34.948l.004-.01c.841-2.38 1.596-4.517 2.223-6.311 7.325-20.969 16.505-41.227 25.698-60.724 4.97-10.54 11.37-23.269 20.45-33.91 2.247-2.634 5.78-5.708 10.838-6.928 5.479-1.322 10.377.088 13.887 2.23 5.755 3.51 8.575 9.355 9.684 11.882 10.877 24.771 14.77 52.321 18.195 76.558.451 3.197.895 6.336 1.345 9.403.665 4.524 1.245 8.87 1.809 13.093l.001.006c1.486 11.126 2.859 21.401 5.349 31.848.026.107.05.216.075.324a329.767 329.767 0 0113.228-2.744c16.322-3.045 32.488-5.005 48.8-6.355 5.382-.445 10.665-1.08 16.263-1.753 2.012-.241 4.066-.488 6.179-.733 7.762-.898 16.036-1.726 24.506-1.844.53-.007 1.19-.024 1.944-.043 2.556-.065 6.195-.158 9.517-.003 4.273.2 10.471.842 16.167 3.688 5.13 2.564 9.139 6.731 11.176 12.202 1.878 5.043 1.588 9.86.936 13.323-1.241 6.592-4.657 12.513-6.281 15.256-5.045 8.522-11.96 15.618-18.566 21.51-4.598 4.099-9.684 8.148-14.172 11.72a582.3 582.3 0 00-5.042 4.041c-12.266 9.989-38.703 30.601-56.457 43.233 3.887 8.777 7.996 17.529 12.191 26.464l1.133 2.411c6.466 13.778 13.085 27.989 18.939 42.689 6.529 16.391 13.085 33.05 19.106 49.969.184.519.463 1.189.933 2.318l.001.002c.26.624.578 1.388.971 2.345.947 2.303 2.124 5.262 3.128 8.385.973 3.026 1.993 6.83 2.327 10.762.304 3.579.269 9.699-3.441 15.336-3.692 5.609-9.206 7.632-13.061 8.253-3.655.588-7.008.169-9.203-.234-3.789-.696-7.884-2.171-8.955-2.556l-.009-.004-.238-.084c-13.571-4.492-26.105-10.963-37.627-17.558-22.522-12.891-44.726-27.078-65.83-42.859-5.671-4.241-11.231-8.899-16.422-13.246-1.206-1.01-2.391-2.002-3.553-2.969-5.111-4.253-9.934-8.147-14.774-11.556a47.348 47.348 0 00-1.885 1.647c-.646.591-1.27 1.181-1.961 1.835l-.179.169c-.709.672-1.559 1.474-2.389 2.213-8.89 7.904-17.447 16.118-26.242 24.561a3883.018 3883.018 0 01-7.761 7.435c-11.455 10.927-23.398 22.019-36.257 32.213-4.8 3.805-15.117 11.336-26.199 15.805-5.471 2.206-12.516 4.247-19.843 3.705-8.152-.602-16.293-4.457-21.562-12.91-4.335-6.954-4.766-14.674-4.58-19.879.175-4.906 1.032-9.766 1.581-12.879l.155-.881c2.807-16.144 7.847-29.221 12.791-42.046 1.469-3.811 2.93-7.6 4.321-11.441 5.646-15.593 11.941-30.951 19.93-46.034 1.624-3.065 3.609-7.451 5.792-12.4l1.171-2.664.004-.01a671.112 671.112 0 013.438-7.739c-.545-.7-1.304-1.58-2.331-2.632-3.117-3.191-6.302-5.702-9.326-8.086-1.403-1.106-2.772-2.185-4.083-3.292-2.996-2.53-6.086-5.09-9.232-7.697l-.003-.002c-13.398-11.101-27.807-23.039-40.304-37.041-14.026-15.716-25.999-33.18-37.11-49.896l-.156-.229-.002-.003-.002-.003-.228-.331a45.19 45.19 0 01-.875-1.314c-.57-.896-1.748-2.809-2.542-5.239-.715-2.188-2.072-7.721 1.15-13.548 3.37-6.096 9.157-7.935 12.23-8.49 3.954-.715 7.692-.582 10.422-.375 1.41.106 2.763.253 3.875.375l.402.045c.994.11 1.76.194 2.492.258 25.093 2.192 49.519 7.633 72.933 13.249 3.52.844 7.14 1.696 10.811 2.561l.011.003c12.131 2.856 24.821 5.845 36.326 9.108zm66.903-89.247c1.941-4.116 3.896-8.097 5.938-11.858 5.035 16.567 7.583 34.416 10.257 53.142.454 3.183.912 6.391 1.387 9.622a882.834 882.834 0 011.571 11.408l.001.004c1.547 11.592 3.214 24.082 6.085 36.128l-.005-.018-.001-.003a33.767 33.767 0 00.155.83l.048.267c.081.454.187 1.043.293 1.608.299 1.586.756 3.827 1.462 6.144.657 2.157 1.814 5.361 3.936 8.361 2.173 3.074 6.52 7.463 13.569 8.221a20.4 20.4 0 005.029-.107 27.757 27.757 0 003.134-.64c.753-.197 1.456-.409 1.877-.535l.052-.016.479-.143.102-.029-.008.002a294.285 294.285 0 0117.811-3.884c15.089-2.815 30.209-4.66 45.77-5.948 5.985-.495 12.069-1.226 17.823-1.918 1.906-.229 3.776-.454 5.594-.664 7.535-.872 14.578-1.552 21.473-1.648 1.183-.017 2.257-.044 3.268-.069h.001c1.275-.033 2.448-.063 3.611-.065-2.767 4.438-6.925 8.921-12.289 13.703-3.945 3.519-7.919 6.68-12.109 10.013l-.004.003a651.474 651.474 0 00-6.074 4.872c-13.497 10.991-43.559 34.335-59.633 45.363a15.08 15.08 0 00-2.702.83c-7.657 3.163-11.3 11.934-8.138 19.591 5.612 13.588 11.839 26.848 17.896 39.746l.001.002.071.152 1.133 2.412c6.488 13.825 12.746 27.283 18.227 41.043 6.518 16.366 12.894 32.576 18.712 48.926.259.728.608 1.615.979 2.526-7.635-3.219-15.226-7.212-22.986-11.654-21.68-12.409-42.825-25.937-62.766-40.849-4.944-3.697-9.711-7.687-14.851-11.99-1.275-1.067-2.573-2.154-3.903-3.26-6.483-5.394-13.557-11.116-21.215-16.089-11.592-7.529-22.863-1.837-27.809 1.448-3.98 2.644-8.351 6.807-10.351 8.711-.432.411-.753.717-.936.88-9.36 8.323-18.469 17.067-27.334 25.578-2.5 2.4-4.981 4.781-7.442 7.13-11.334 10.812-22.457 21.113-34.186 30.411-4.072 3.228-11.712 8.64-18.78 11.49-2.099.847-3.681 1.272-4.78 1.469-.023-.44-.03-.987-.006-1.659.097-2.722.597-5.59 1.196-9.027l.115-.664c2.26-12.997 5.937-22.561 10.599-34.687 1.61-4.187 3.337-8.679 5.164-13.724 5.374-14.841 11.129-28.792 18.234-42.207 2.205-4.163 4.604-9.515 6.73-14.337a2873.5 2873.5 0 001.299-2.952l.001-.004c1.709-3.889 3.229-7.348 4.533-10.065 3.909-8.141 1.829-15.949-.566-20.91-2.365-4.898-5.933-9.07-8.975-12.183-4.662-4.772-10.885-9.674-13.921-12.066-.748-.589-1.303-1.025-1.593-1.27-3.459-2.92-6.859-5.742-10.197-8.511-13.235-10.981-25.466-21.129-36.313-33.283-7.575-8.488-14.59-17.678-21.41-27.315 18.034 2.469 36.093 6.519 54.619 10.962 3.874.929 7.739 1.841 11.564 2.744 17.747 4.186 34.647 8.173 47.634 12.767 7.81 2.762 16.381-1.33 19.143-9.14a15.05 15.05 0 00.698-2.792 15.098 15.098 0 001.208-3.26c2.428-9.937 9.055-28.718 13.82-42.222l.002-.004c.904-2.563 1.741-4.936 2.47-7.023 6.78-19.406 15.394-38.485 24.509-57.817zm173.737 101.973l.001-.006-.004.022-.003.02.006-.036zm-42.193 249.444a.975.975 0 01-.002-.185.773.773 0 01.002.185zm9.836-8.927a.708.708 0 010 0zM64.75 167.666c-.07-.11-.057-.101.007.011l-.007-.011z"/></svg>