<svg viewBox="0 0 171 171" xmlns="http://www.w3.org/2000/svg"><path fill-rule="evenodd" clip-rule="evenodd" d="M94.976 121.148a204.236 204.236 0 00-3.507 1.637c-5.899 2.796-13.4 6.352-22.497 7.878-4.049.679-8.108.232-11.09-.289-3.254-.569-6.594-1.48-9.696-2.537-5.508-1.877-12.898-5.106-17.649-9.579-1.043-.982-2.18-2.011-3.381-3.098-7.934-7.181-18.66-16.89-23.453-32.138-1.528-4.863-2.584-9.799-2.06-15.344.485-5.122 2.262-9.647 3.72-13.31.835-2.1 1.565-4.187 2.411-6.609.318-.91.653-1.87 1.017-2.893 1.237-3.487 2.734-7.52 4.673-11.476 3.964-8.088 10.32-16.954 21.833-21.913C47.238 6.334 63.891-.475 82.208 7.753c5.45 2.448 11.972 6.154 17.99 10.354 5.824 4.063 12.308 9.368 16.732 15.282 1.935 2.587 2.881 5.311 3.358 6.89.55 1.82.924 3.68 1.195 5.349.543 3.347.85 7.078 1.036 10.504.343 6.322.337 12.855.333 16.31v.861c0 9.256-2.723 18.134-6.611 25.577 11.624 7.262 21.882 15.713 31.504 24.175 5.666 4.983 12.365 11.164 17.723 18.665 4.816 6.741 3.254 16.11-3.487 20.925-6.741 4.815-16.109 3.254-20.925-3.488-3.216-4.503-7.665-8.774-13.124-13.575-10.949-9.63-21.375-17.982-32.956-24.434zm-2.124-47.845c0 3.7-1.216 8.101-3.544 12.324-2.065 3.748-4.551 6.533-6.616 8.144a259.316 259.316 0 00-6.748 3.097c-4.498 2.124-7.081 3.344-11.5 4.133a12.764 12.764 0 01-1.398-.18c-1.427-.249-3.24-.718-5.185-1.381-1.936-.66-3.733-1.419-5.142-2.138-1-.511-1.514-.854-1.678-.963a1.064 1.064 0 00-.06-.038v.001c-1.51-1.421-2.913-2.72-4.214-3.927-8.064-7.475-12.245-11.35-14.444-18.347-.494-1.574-.69-2.473-.768-2.985a3.777 3.777 0 01-.047-.43.782.782 0 01.002-.111c.027-.28.146-1.07 1.727-5.043 1.093-2.746 2.126-5.704 3.031-8.294.278-.797.544-1.558.796-2.268 1.164-3.282 2.194-5.97 3.338-8.303 2.201-4.491 4.233-6.475 6.762-7.564 12.504-5.385 17.621-6.216 22.752-3.91 3.562 1.599 8.46 4.342 13.115 7.59 3.928 2.74 6.93 5.321 8.773 7.333.022.12.044.249.067.39.296 1.823.53 4.348.692 7.327.296 5.443.291 11.179.289 14.685v.858zM91.57 48.959l.013.044a1.026 1.026 0 01-.013-.044z"/></svg>