<svg viewBox="0 0 500 500" xmlns="http://www.w3.org/2000/svg"><path d="M255.865 370.481c6.711-5.837 7.597-16.22 1.978-23.191-5.618-6.972-15.612-7.892-22.323-2.056-8.966 7.798-16.013 11.218-28.243 14.14-8.529 2.038-13.853 10.873-11.892 19.734 1.962 8.861 10.467 14.392 18.996 12.354 16.45-3.93 28.204-9.431 41.484-20.981z"/><path fill-rule="evenodd" clip-rule="evenodd" d="M120.164 254.784a17.265 17.265 0 01-9.532 9.948 18.108 18.108 0 01-4.758 1.258l-.01.001c-9.316 1.165-17.813-5.444-18.977-14.76-.693-5.54 1.363-10.79 5.103-14.381 5.012-5.318 13.1-6.973 19.972-3.537 7.957 3.978 11.43 13.354 8.202 21.471zM88.08 243.55c-.041.129-.033.099.004-.011l-.004.011zm13.106-11.233c.209-.032.358-.051.435-.06l.026-.003c-.155.019-.308.04-.461.063zM286.844 254.807a17.44 17.44 0 001.478-3.044c3.228-8.116-.245-17.492-8.202-21.47-6.872-3.437-14.959-1.781-19.972 3.536-3.739 3.591-5.796 8.841-5.103 14.382 1.164 9.316 9.661 15.924 18.977 14.76l.01-.002c.552-.069 2.508-.313 4.759-1.257a17.315 17.315 0 004.383-2.661 17.226 17.226 0 003.67-4.244zm-30.606-14.277c-.041.128-.033.099.004-.011l-.004.011zm13.541-11.294c-.077.01-.226.028-.435.061l.19-.028.271-.036-.026.003z"/><path fill-rule="evenodd" clip-rule="evenodd" d="M396.279 401.304v-.003l-31.233-17.978c-4.802 5.499-9.861 10.585-14.967 15.26-37.104 33.971-85.767 58.135-136.157 60.126-49.81 1.968-100.006-20.156-132.168-62.766-19.816-26.254-26.268-56.061-31.252-84.528-.861-4.922.48-9.73 3.294-13.33-7.193-7.124-13.132-16.04-17.443-26.891-6.959-17.513-10.885-41.8-2.467-63.058 3.069-7.748 7.187-14.63 12.018-20.721-4.317-2.004-7.636-5.963-8.87-10.835-7.793-3.187-11.9-12.196-9.21-20.542 22.374-69.415 86.19-105.553 145.773-117.642 71.178-14.441 153.949-1.118 210.996 54.84 42.845 42.026 60.595 104.583 55.774 163.662-.95 11.636-2.528 23.982-4.043 35.824v.004c-.96 7.509-1.895 14.815-2.626 21.609-.034.313-.076.769-.128 1.325v.004c-.178 1.92-.467 5.025-.889 7.529-.095.563-.209 1.19-.35 1.866 2.105 3.148 4.266 6.334 6.458 9.565l.005.008.001.002c9.502 14.007 19.564 28.841 27.984 44.873-.485-.924 3.212 5.525 4.908 9.049 1.089 2.263 2.387 5.237 3.255 8.391.635 2.31 2.195 8.529-.344 15.057-2.106 5.414-5.931 8.866-8.244 10.688-2.589 2.04-5.378 3.632-7.636 4.802-2.322 1.203-4.612 2.226-6.322 2.981l-.79.347-.621.274a92.65 92.65 0 00-1.401.632l-.05.023c-.122.058-.183.089-.197.096l.003-.002-33.215-19.12-.004.002-19.842-11.423zM179.672 70.711c64.198-13.025 135.556-.232 183.163 46.465 34.55 33.89 50.117 85.893 45.951 136.941-.918 11.249-2.277 21.779-3.69 32.727v.005c-.983 7.613-1.991 15.427-2.896 23.826a155.22 155.22 0 00-.213 2.154l-.041.437c-.047.512-.09.972-.137 1.444-.118 1.198-.225 2.082-.346 2.799-.043.254-.082.453-.115.604-4.12 6.526-3.227 15.161 2.033 20.633a16.73 16.73 0 001.67 3.223c2.859 4.301 5.676 8.458 8.437 12.531l.007.01c9.321 13.752 17.996 26.552 25.462 40.767a59.6 59.6 0 001.042 1.867l.226.391a387.579 387.579 0 01.878 1.532l.145.256.131.235-.585.262-.785.348-.639.281c-.591.26-1.22.536-1.77.784-.737.332-1.702.775-2.621 1.261-6.209 3.278-12.525 6.654-18.854 10.231l-19.846-11.424c.136-5.571.289-11.159.442-16.774v-.008l.002-.059v-.002c.172-6.293.345-12.619.496-18.993.066-2.77.043-5.677.021-8.347V357.062c-.022-2.77-.043-5.364.003-7.922.096-5.283.476-9.257 1.242-12.133 2.335-8.763-2.61-17.833-11.045-20.259a15.297 15.297 0 00-4.306-.6 15.573 15.573 0 00-2.704-1.185c-8.342-2.75-17.25 2.047-19.897 10.713-1.082 3.542-1.75 6.079-2.279 8.087l-.001.004v.003c-1 3.798-1.504 5.711-3.374 8.981-6.527 11.41-15.603 21.836-25.756 31.13-32.801 30.032-74.737 50.279-116.406 51.926-40.257 1.591-80.492-16.357-106.022-50.181-12.762-16.909-18.555-36.313-23.095-59.672a90.334 90.334 0 0010.529 2.717c15.392 3.014 35.209 3.355 52.378-6.449 13.841-7.903 23.34-21.93 29.384-35.62 1.125.083 2.275.041 3.437-.136l29.183-4.459a86.514 86.514 0 006.398 11.331c24.883 37.353 75.613 43.704 109.349 19.687 14.638-10.421 25.257-25.855 29.721-44.443 3.447-14.352 3.259-30.854.946-44.383-2.409-14.088-3.961-19.826-7.64-25.341a59.837 59.837 0 00-.232-.345l-.103-.152-.065-.096c-.436-.644-.49-.723-.819-1.479-.613-1.408-1.732-4.453-3.494-10.995-2.214-8.222-10.058-13.231-17.985-11.784a17.158 17.158 0 00-.165-4.776c2.355-.173 4.71-.342 7.065-.507 8.897-.625 16.088-.93 23.561-.156 8.709.903 16.473-5.7 17.342-14.747.869-9.048-5.487-17.113-14.196-18.016-10.272-1.065-19.694-.574-28.844.068-25.849 1.815-51.656 4.082-77.369 6.575-34.439 3.338-68.832 7.856-102.927 12.335l-.005.001c-4.254.559-8.503 1.117-12.746 1.672a15.251 15.251 0 00-8.928-1.348 162.048 162.048 0 00-24.545 5.691c-13.849 1.811-27.311 3.529-40.736 4.519 20.336-46.8 67.592-74.465 117.578-84.607zm-10.864 104.67c22.392-2.923 44.684-5.757 67.025-8.184a121.694 121.694 0 00-5.258 5.244c-16.635 17.661-29.38 41.776-29.321 67.395l-16.294 2.489c2.203-22.589-2.677-45.732-15.018-65.215a63.002 63.002 0 00-1.134-1.729zm-59.048 7.699l-.15.02c-6.702 2.272-13.28 5.144-19.347 8.652-12.83 7.418-22.375 17.064-27.066 28.911-4.055 10.24-2.734 24.916 2.452 37.968 6.242 15.709 17.725 24.428 34.35 27.684 11.906 2.331 23.203 1.643 31.241-2.947 8.534-4.873 16.202-18.023 20.028-32.402 5.116-19.233 2.377-39.687-7.802-55.757-4.154-6.559-9.034-9.47-18.571-14.089-1.577.203-3.155.406-4.734.607-3.433.439-6.901.894-10.401 1.353zm201.797-4.672c-3.829.695-7.912-.064-11.418-2.454-4.677-3.188-11.396-3.627-21.105.612-9.605 4.194-19.169 11.857-25.806 18.904-20.419 21.677-26.788 47.318-12.257 69.131 14.101 21.167 44.758 25.938 65.371 11.263 8.371-5.959 14.335-14.628 16.886-25.252 2.155-8.976 2.195-20.691.491-30.656-1.206-7.053-1.972-10.397-2.455-12.043l-.024-.084-.015-.048-.014-.048-.02-.063-.044-.141-.016-.05-.014-.042-.113-.166c-.75-1.101-2.232-3.275-3.82-6.927-1.569-3.607-3.191-8.47-5.134-15.683a17.022 17.022 0 01-.493-6.253zm135.705 218.001l-.014.012.012-.01.002-.002z"/><path fill-rule="evenodd" clip-rule="evenodd" d="M396.279 401.304c-.194 7.94-.353 15.846-.433 23.748 6.694-4.425 13.491-8.491 20.275-12.325l33.212 19.122c-16.405 8.663-31.729 17.077-45.804 27.502-2.985 2.211-3.827 2.919-4.396 3.426-.292.259-.537.488-.978.9l-.497.462c-.642.598-1.429 1.323-2.487 2.267l-.086.086a21.277 21.277 0 01-2.56 2.196c-.96.696-3.589 2.504-7.375 3.11a15.972 15.972 0 01-7.832-.7c-3.061-1.076-5.523-2.975-7.316-5.173-3.07-3.763-4.313-7.959-4.894-10.521-.639-2.815-.888-5.579-.998-7.776-.16-3.158-.056-7.552-.019-9.094v-.005l.009-.386.002-.089v-.061c-.049-18.244.451-36.618.944-54.67l31.233 17.981zm-.664 64.644l-.03.029.042-.044.029-.03.038-.039.013-.013-.037.04-.055.057zm.341-18.099a.275.275 0 01.001.004l-.001-.004z"/></svg>