<svg viewBox="0 0 500 500" xmlns="http://www.w3.org/2000/svg"><path fill-rule="evenodd" clip-rule="evenodd" d="M124.273 245.253a14.966 14.966 0 00-5.117-11.706c-6.234-5.455-15.711-4.823-21.166 1.411l-.02.023-.107.123a9.44 9.44 0 00-.09.103l-.082.096-.005.005c-.096.113-.407.476-.75.934l-.015.021c-.244.326-1.248 1.669-2.005 3.614-.933 2.4-1.923 6.947.414 11.899 1.648 3.492 4.208 5.397 5.153 6.033 5.865 4.255 14.116 3.74 19.402-1.547a14.95 14.95 0 004.388-11.009zm-22.652 13.258a14.655 14.655 0 01-.291-.17l.291.17zm14.645-26.183a5.846 5.846 0 01-.114-.065l.114.065zm4.133 22.581l.054-.064-.054.064z"/><path d="M263.377 229.016c-8.284 0-15 6.716-15 15 0 8.285 6.716 15 15 15h.82c8.284 0 15-6.715 15-15 0-8.284-6.716-15-15-15h-.82z"/><path fill-rule="evenodd" clip-rule="evenodd" d="M354.882 126.705c-45.063-42.547-112.607-54.203-173.373-42.336-47.315 9.24-92.045 34.448-111.295 77.089 12.707-.902 25.45-2.467 38.559-4.117a158.328 158.328 0 0123.233-5.185 14.93 14.93 0 018.451 1.227c4.017-.505 8.038-1.014 12.065-1.523 32.274-4.081 64.831-8.198 97.431-11.24 24.339-2.271 48.766-4.337 73.233-5.991 8.662-.585 17.58-1.031 27.303-.061 8.243.822 14.259 8.171 13.437 16.414-.822 8.244-8.171 14.26-16.415 13.437-7.073-.705-13.88-.427-22.302.142-2.229.151-4.458.305-6.687.462.261 1.428.316 2.895.156 4.352 7.503-1.319 14.929 3.245 17.024 10.737 1.668 5.961 2.727 8.734 3.307 10.018.311.688.362.76.775 1.346l.379.541c3.482 5.026 4.952 10.253 7.231 23.09 2.19 12.327 2.368 27.362-.895 40.439-4.225 16.937-14.276 30.999-28.132 40.494-31.933 21.882-79.952 16.096-103.505-17.938a78.002 78.002 0 01-6.056-10.324l-27.623 4.062c-1.1.162-2.189.2-3.253.125-5.721 12.474-14.713 25.253-27.814 32.455-16.252 8.932-35.009 8.621-49.579 5.875a88.049 88.049 0 01-9.966-2.475c4.297 21.283 9.78 38.963 21.861 54.369 24.165 30.819 62.25 47.172 100.355 45.722 39.442-1.5 79.137-19.948 110.185-47.311 9.61-8.469 18.201-17.968 24.379-28.364 1.77-2.98 2.247-4.723 3.193-8.183l.001-.001v-.002l.001-.003c.5-1.83 1.133-4.142 2.157-7.369 2.505-7.896 10.937-12.266 18.834-9.761.9.286 1.755.649 2.559 1.079a15 15 0 014.076.548c7.984 2.21 12.665 10.474 10.454 18.458-.725 2.621-1.084 6.242-1.175 11.055-.043 2.331-.024 4.694-.003 7.218v.047c.02 2.434.042 5.085-.02 7.609-.143 5.808-.307 11.572-.47 17.306V370.266l-.001.026c-.145 5.118-.29 10.212-.419 15.291l-29.563-16.381c-4.545 5.011-9.334 9.645-14.168 13.905-35.12 30.952-81.182 52.968-128.879 54.783-47.148 1.793-94.661-18.365-125.104-57.189-18.757-23.921-24.865-51.08-29.582-77.017a14.968 14.968 0 013.118-12.146c-6.809-6.49-12.43-14.614-16.51-24.501-6.587-15.956-10.304-38.085-2.336-57.454 2.905-7.06 6.802-13.331 11.376-18.88a15.028 15.028 0 01-8.396-9.873c-7.376-2.903-11.264-11.112-8.718-18.716C58.954 98.867 119.36 65.94 175.758 54.926c67.374-13.158 145.721-1.019 199.719 49.966 40.555 38.292 57.356 95.29 52.793 149.12-.899 10.603-2.394 21.853-3.827 32.644-.909 6.841-1.793 13.498-2.486 19.689-.032.286-.072.703-.121 1.211-.169 1.749-.442 4.578-.841 6.859-.09.514-.198 1.085-.332 1.701 1.995 2.87 4.043 5.777 6.119 8.724 8.994 12.763 18.518 26.278 26.488 40.885-.459-.842 3.041 5.034 4.647 8.246 1.03 2.061 2.259 4.771 3.08 7.645.601 2.105 2.077 7.771-.326 13.718-1.993 4.934-5.613 8.079-7.803 9.739-2.451 1.859-5.09 3.309-7.228 4.376-2.198 1.096-4.365 2.028-5.984 2.715l-.747.317-.588.249c-.264.112-.508.216-.745.319a31.714 31.714 0 00-.816.366l.004-.002-31.441-17.421c5.991-3.259 11.97-6.335 17.847-9.322a44.62 44.62 0 012.481-1.149c.521-.226 1.116-.478 1.675-.714l.605-.257c.441-.187.874-.372 1.297-.556l-.125-.213-.137-.233c-.295-.503-.565-.953-.831-1.397l-.213-.356a52.798 52.798 0 01-.987-1.701c-7.066-12.951-15.278-24.614-24.101-37.144l-.007-.009c-2.613-3.712-5.279-7.499-7.986-11.418a15.055 15.055 0 01-1.581-2.936c-4.978-4.986-5.823-12.854-1.923-18.8.03-.137.067-.318.108-.55.115-.654.216-1.459.328-2.551.044-.429.085-.849.13-1.315l.038-.398c.059-.602.126-1.279.202-1.963.856-7.652 1.811-14.773 2.741-21.709v-.005c1.338-9.974 2.624-19.569 3.493-29.818 3.943-46.512-10.792-93.894-43.495-124.773zm-120.214 45.577c-21.147 2.211-42.248 4.793-63.443 7.457.362.513.72 1.037 1.074 1.574 11.681 17.752 16.3 38.839 14.214 59.421l15.424-2.268c-.056-23.343 12.007-45.315 27.754-61.406a112.537 112.537 0 014.977-4.778zm-119.477 14.489l.142-.018c3.312-.418 6.596-.833 9.845-1.232l4.481-.554c9.027 4.208 13.646 6.861 17.579 12.837 9.635 14.643 12.227 33.279 7.384 50.802-3.621 13.102-10.879 25.083-18.957 29.523-7.609 4.183-18.302 4.809-29.572 2.685-15.736-2.966-26.605-10.91-32.514-25.224-4.908-11.892-6.159-25.263-2.32-34.593 4.44-10.794 13.475-19.584 25.619-26.343 5.742-3.196 11.969-5.813 18.313-7.883zm180.346-6.511a14.947 14.947 0 0010.807 2.236 14.969 14.969 0 00.467 5.697c1.839 6.573 3.374 11.003 4.86 14.29 1.503 3.327 2.905 5.308 3.615 6.312l.107.151a10.207 10.207 0 01.14.433c.457 1.5 1.182 4.547 2.324 10.973 1.612 9.079 1.575 19.754-.466 27.932-2.414 9.68-8.059 17.579-15.982 23.009-19.512 13.371-48.531 9.023-61.878-10.263-13.754-19.874-7.726-43.237 11.602-62.988 6.282-6.42 15.335-13.403 24.427-17.224 9.189-3.863 15.55-3.463 19.977-.558zm139.246 200.877l.014-.011-.002.001-.012.01z"/><path fill-rule="evenodd" clip-rule="evenodd" d="M405.32 395.994l.003-.002-18.785-10.409v.003l-29.563-16.384c-.467 16.449-.941 33.189-.894 49.813v.056l-.002.08-.008.355v.002c-.035 1.404-.133 5.408.017 8.285.105 2.002.341 4.52.945 7.085.55 2.335 1.727 6.158 4.633 9.586a15.635 15.635 0 006.925 4.713 15.68 15.68 0 007.413.639c3.584-.552 6.072-2.2 6.981-2.834a19.923 19.923 0 002.423-2.001l.081-.079c1.002-.859 1.747-1.52 2.355-2.065l.47-.421c.418-.375.65-.584.926-.82.538-.462 1.336-1.107 4.161-3.121 13.322-9.499 27.828-17.165 43.356-25.059l-31.437-17.422zm0 0c-6.421 3.493-12.855 7.198-19.191 11.229.075-7.199.226-14.403.409-21.637l18.782 10.408zm-19.458 48.538l.1-.099a.56.56 0 00.023-.024l-.037.036a4.882 4.882 0 00-.066.067l-.008.008-.012.012zm.371-16.537c.002.009.002.011.001.003l-.001-.003z"/><path d="M253.629 357.502c6.352-5.318 7.191-14.779 1.873-21.131s-14.778-7.19-21.131-1.873c-8.486 7.105-15.156 10.221-26.733 12.884-8.073 1.856-13.113 9.907-11.256 17.98 1.857 8.074 9.907 13.113 17.98 11.256 15.571-3.581 26.697-8.593 39.267-19.116z"/></svg>