<svg viewBox="0 0 500 500" xmlns="http://www.w3.org/2000/svg"><path d="M347.81 144.468l-.458.031c-17.155 1.162-34.567 1.328-51.507 1.489-8.174.077-16.24.154-24.112.341-2.036.048-4.548.085-7.272.125h-.004c-4.24.061-8.991.13-13.244.263-.503.016-.985.032-1.445.049a14.937 14.937 0 01-8.258 1.058 28.17 28.17 0 01-2.803-.564c-.49-.129-1.41-.388-2.469-.845l-.05-.021c-.548-.231-3.832-1.614-6.332-5.075-1.652-2.287-3.311-6.013-2.745-10.651.537-4.395 2.803-7.33 4.306-8.834 2.491-2.492 5.232-3.44 5.785-3.631l.047-.016c1.637-.573 3.141-.786 3.631-.856l.014-.002c2.414-.343 6.151-.497 9.383-.597 4.312-.135 9.936-.22 14.483-.288H264.796c2.563-.039 4.781-.072 6.224-.106 8.806-.21 17.337-.289 25.727-.366h.001c16.401-.152 32.262-.299 48.577-1.404l.918-.063C364.279 113.283 383.221 112 402 112c8.284 0 15 6.716 15 15 0 8.284-6.716 15-15 15-17.755 0-35.834 1.225-54.19 2.468z"/><path fill-rule="evenodd" clip-rule="evenodd" d="M235.924 191.033c15.568-.171 31.035.333 46.735 1.272 6.155.367 12.355.498 18.216.621h.001l3.267.071c6.95.156 13.463.367 19.816.972C329.651 194.51 335.65 195 342 195c8.284 0 15-6.716 15-15 0-8.284-6.716-15-15-15-4.873 0-9.717-.375-15.199-.896-7.518-.716-14.964-.941-21.982-1.1-1.165-.026-2.314-.05-3.452-.074-5.864-.125-11.393-.242-16.917-.572-16.23-.97-32.424-1.504-48.856-1.323-4.006.044-7.926.297-11.402.521h-.004c-3.361.217-6.322.408-9.216.469a37.059 37.059 0 00-2.111-.159c-.877-.037-2.581-.074-4.533.267-1.501.262-6.118 1.213-9.745 5.469-5.373 6.305-4.617 15.773 1.688 21.146a14.972 14.972 0 0012.931 3.238c.361.026.937.057 1.588.047 3.848-.056 7.633-.301 11.003-.518l.33-.021c3.579-.231 6.72-.427 9.801-.461zm-20.453-28.96z"/><path d="M121.337 276.031a79.174 79.174 0 012.482-.031c1.62 0 3.18.257 4.641.732 1.862.121 4.111.257 6.637.401 8.555.491 19.47 1.041 26.973 1.419l4.29.217c8.815.449 17.562 1.244 25.961 2.008l1.646.15c9.012.818 17.649 1.575 26.251 1.922 10.896.439 21.696 1.235 32.24 2.036l2.455.187c9.762.744 19.292 1.47 28.835 1.947 8.274.413 14.647 7.455 14.233 15.729-.413 8.274-7.455 14.647-15.729 14.233-9.954-.497-19.867-1.252-29.554-1.99l-2.514-.192c-10.561-.802-20.874-1.559-31.174-1.974-9.452-.381-18.79-1.207-27.755-2.021l-1.5-.136c-8.535-.776-16.724-1.52-24.92-1.937l-2.063-.105-2.168-.109h-.003l-.014-.001c-7.494-.378-18.541-.935-27.207-1.432-5.16-.295-9.792-.587-12.281-.819a33.763 33.763 0 01-2.2-.264 17.112 17.112 0 01-.995-.189 15.557 15.557 0 01-2.346-.711 15.11 15.11 0 01-3.271-1.774c-.889-.636-5.399-3.909-6.18-10.431-.93-7.759 4.035-12.373 5.799-13.72a15.073 15.073 0 014.263-2.277c1.347-.462 2.477-.627 2.768-.67l.015-.002c.465-.068.856-.105 1.097-.125.49-.04.951-.06 1.288-.071zM138.908 357.177c11.141-.311 21.953-.155 33.149.008a1708.53 1708.53 0 0019.544.2c11.983.049 22.683.094 33.536 1.402.494.059 1.021.126 1.578.196 6.093.767 15.75 1.984 24.978-.36 8.029-2.039 12.885-10.202 10.845-18.231-2.039-8.029-10.201-12.885-18.231-10.846-3.455.878-7.68.409-15.58-.544-12.661-1.526-25.039-1.572-36.678-1.617l-2.905-.011c-5.165-.025-10.457-.1-15.824-.177h-.011c-11.559-.166-23.472-.337-35.24-.008-3.908.11-7.768.232-11.594.353h-.01c-10.973.348-21.672.687-32.465.687-8.284 0-15 6.716-15 15 0 8.284 6.716 15 15 15 11.312 0 22.697-.361 33.803-.713h.001c3.738-.119 7.444-.236 11.104-.339z"/><path fill-rule="evenodd" clip-rule="evenodd" d="M291.997 443.811c2.478 4.87 7.538 8.206 13.376 8.206 8.284 0 15-6.716 15-15 0-30.818 6.873-62.209 18.928-92.202 4.793-11.925 12.031-23.929 19.728-36.693l.407-.675c6.228-10.33 13.103-20.569 20.47-30.348 3.631-4.82 7.306-9.716 10.954-14.577l.002-.002.001-.001.001-.002c17.149-22.847 33.702-44.901 42.309-54.509 5.029-5.613 14.099-19.012 22.886-33.025 9.021-14.386 18.715-30.989 25.017-43.797 5.694-11.572 10.603-24.152 13.053-37.52 1.499-8.177 1.353-16.869 1.24-23.607a270.209 270.209 0 01-.053-4.498c0-.27.038-.748.229-2.29l.03-.242c.152-1.22.425-3.404.425-5.635 0-5.4-2.747-9.427-5.508-11.72a15.668 15.668 0 00-5.69-2.997 18.145 18.145 0 00-4.594-.671 27.19 27.19 0 00-1.958.033l-.195.01h-7.06c-9.779 0-19.491.64-28.744 1.315l-3.738.275h-.002c-8.031.593-15.682 1.158-23.303 1.392-14.528.447-29.522.992-44.464 1.535-13.663.496-27.283.99-40.464 1.407-12.956.41-25.787.368-38.914.325-5.576-.018-11.206-.037-16.921-.02-14.418.04-37.98 1.486-52.075 2.895 0-.002-.058 0-.202.003l-.905.02h-.042c-.884.018-2.203.043-3.563.122-1.309.076-3.176.228-5.086.62-.964.197-2.282.523-3.711 1.094-1.305.522-3.6 1.597-5.76 3.734-3.678 3.638-5.291 7.908-5.988 9.804-.195.53-.374 1.042-.507 1.424l-.009.027c-.149.427-.245.703-.338.955-.06.164-.102.272-.127.333-3.335 6.075-6.552 12.047-9.735 17.954-6.715 12.464-13.275 24.639-20.449 36.879-22.343 38.118-42.653 71.696-70.887 105.569C62.395 268.9 32.068 310.472 15.17 358.54c-9.008 25.624-16.228 59.086-2.626 89.572 3.3 7.397 11.852 10.808 19.303 7.802 6.047-.264 11.853-1.089 16.998-1.87.854-.129 1.688-.257 2.505-.382l.022-.004c5.448-.835 10.108-1.55 14.746-1.842 5.846-.368 11.631-.932 17.122-1.468h.006l.556-.054c5.748-.561 11.187-1.084 16.601-1.403 9.387-.554 18.643-.839 28.131-1.132h.002l.002-.001h.014c4.803-.148 9.665-.298 14.634-.486 28.596-1.08 57.281-1.684 85.59-.948 5.51.143 10.731.196 15.814.248 8.619.088 16.842.171 25.407.684.14.008.411.029.775.057l.011.001c1.377.106 4.074.314 6.145.347 1.514.025 3.414-.008 5.4-.262 1.825-.234 4.73-.771 7.683-2.333a15.154 15.154 0 001.985-1.255zm173.379-371.56l-.002-.128c-6.79.175-13.723.635-20.942 1.162-1.205.087-2.419.177-3.643.268-7.983.59-16.341 1.209-24.66 1.464-14.987.46-29.498.99-44.055 1.52h-.008c-13.435.49-26.911.981-40.838 1.421-13.505.427-27.172.383-40.525.34-5.455-.018-10.857-.036-16.174-.02-13.277.036-35.973 1.419-49.332 2.762-.55.055-1.083.085-1.496.102-.319.747-.709 1.58-1.179 2.436-3.121 5.683-6.241 11.474-9.391 17.32-6.857 12.723-13.854 25.709-21.301 38.414-22.392 38.202-43.768 73.668-73.725 109.608-32.118 38.531-59.574 76.735-74.632 119.569-6.989 19.882-10.778 39.69-6.95 56.965 2.454-.279 5.04-.648 7.823-1.07.763-.116 1.545-.236 2.345-.36 5.336-.822 11.454-1.765 17.543-2.149 5.325-.335 10.66-.855 16.299-1.405h.002l.358-.035c5.682-.554 11.673-1.134 17.744-1.492 9.793-.578 19.796-.887 29.541-1.189h.004c4.702-.146 9.344-.29 13.873-.461 28.887-1.091 58.285-1.719 87.502-.959 4.492.117 9.263.169 14.168.222h.005c9.201.099 18.873.203 28.06.753.553.034 1.121.076 1.618.114l.438.034h.005l.479.037.284.021.283.021c.984.071 1.809.118 2.523.13l.118.001.089.001h.091c.097 0 .186 0 .269-.002 4.425-1.575 9.236-.943 13.049 1.471 2.147-29.201 9.421-58.12 20.429-85.509 5.713-14.214 14.058-28.045 21.353-40.135l.001-.001.926-1.535c6.734-11.169 14.182-22.267 22.2-32.91a8506.74 8506.74 0 0010.505-13.983l.004-.005.001-.001c17.11-22.804 34.799-46.379 44.372-57.066 3.033-3.387 10.796-14.563 19.815-28.946 8.786-14.011 17.869-29.626 23.516-41.105 4.96-10.079 8.677-19.938 10.463-29.684.911-4.97.844-9.74.755-16.007z"/></svg>