<svg width="2168.937" height="11.678" fill="#ec0000" xmlns="http://www.w3.org/2000/svg"><path d="M663.8 0c-2.026.508-2.694.693-3.47.693-.775 0-1.66-.186-4.115-.418-4.65.4-7.034-.264-12.33-.191-.5.112-1.3.034-1.896.092.072.013.145.023.297.242-.194.585-.392.3-.442.012a.376.376 0 01.04-.25c-1.572.144-3.161.293-4.973.238-2.541-.077-5.023-.227-6.625-.113-1.647.234-4.23-.026-6.524-.121-1.147-.048-2.222-.055-3.074.064-.852.119-1.48.362-1.733.813-.684-.54-1.422-.787-2.187-.874-.765-.086-1.556-.013-2.348.086-1.583.199-3.167.502-4.535-.156-.995.562-1.884.574-2.758.492-.873-.082-1.732-.258-2.668-.072-.93.375-2.237.096-3.435-.101-1.198-.198-2.287-.314-2.776.382-.864-.184-1.938-.38-3.091-.418-1.154-.037-2.387.083-3.57.532-1.914-.057-3.318-.23-4.608-.25-1.29-.02-2.464.113-3.914.67-.452-.56-1.557-.586-2.842-.582-1.285.003-2.75.037-3.928-.407-1.222.736-3.1.57-5.133.465-2.032-.105-4.22-.148-6.064.828-4.02-.645-5.765.211-11.172-.45-2.573.155-5.48.233-8.08.4-2.6.166-4.895.42-6.24.93-2.945-.667-5.202-.387-7.39-.08-2.185.305-4.3.637-6.964.08-2.683.595-6.665.182-10.06.071-1.803 1.06-2.992.994-3.967.823-.975-.172-1.737-.448-2.682.191-1.83-.276-5.013-.476-7.884-.39-1.436.042-2.792.156-3.862.369-1.07.212-1.852.523-2.138.959a4.053 4.053 0 00-2.131-.551c-.686.009-1.36.163-2.06.318-.702.155-1.433.31-2.23.322a6.242 6.242 0 01-2.63-.539c-6.26.071-13.506.74-18.123 1.084-3.623.448-4.553-.07-7.264-.052-2.472-.357-10.068.778-11.83.117-.707.606-3.816.301-6.717.111-1.45-.095-2.85-.16-3.87-.07s-1.661.335-1.6.865c-2.094-.054-3.104-.249-3.946-.27-.841-.02-1.513.133-2.93.77-1.367-.63-2.704-.59-4.037-.455-.215.022-.433-.005-.648.02.015-.035.026-.007.04-.051-.394-.57-.49-.277-.44.011.006.023.02.03.027.051-.993.11-1.984.275-2.992.092-3.362-.358-5.468-.295-7.504-.14-2.036.154-4.004.4-7.09.415-5.106-.038-5.184.149-9.373-.507-1.278.916-2.343.885-3.557.652-1.213-.233-2.574-.669-4.435-.563-1.18.49-3.22.5-5.543.38-2.323-.122-4.93-.374-7.24-.409-2.528.535-4.54.49-6.594.375-2.056-.114-4.156-.297-6.863-.035-1.53-.515-3.414-.425-5.34-.338-1.927.087-3.898.171-5.598-.357-2.042.431-3.71.252-5.152.086-1.443-.167-2.662-.32-3.807.158-1.368-.595-2.723-.657-4.04-.598-1.315.06-2.593.24-3.808.123-1.733-.313-3.39-.082-4.941.016-1.55.098-2.993.061-4.3-.791-1.094.722-1.605.695-2.343.549-.737-.147-1.701-.412-3.703-.164-.632.318-1.905.088-3.228-.114-1.324-.202-2.698-.376-3.537.057-2.45-.529-6.56-.457-9.203-.408-.056-.108-.122-.086-.21.002-.714.013-1.92.032-2.171.023-1.484-.515-3.073-.548-4.754-.48-1.681.068-3.454.239-5.31.134-2.55-.697-3.472.135-6.403-.373-4.273-.67-8.442-.165-11.053-.435-1.45.262-2.926-.05-4.476-.244-1.55-.194-3.176-.269-4.93.47-1.118-.623-2.634-.694-4.133-.7-1.5-.008-2.98.047-4.025-.323-4.334-.249-5.991.38-8.955.129-4.737-.437-4.694.04-8.735-.082-2.18.24-4.733-.584-8.763-.442-4.042-.67-7.164.436-10.276-.32-5.958-.618-9.493.146-14.82.252-2.485-.596-5.64-.26-6.932-.068-1.868.193-3.547-.252-5.4-.565-1.853-.313-3.88-.497-6.447.221-2.322-.42-4.375-.47-6.461-.385-2.086.085-4.207.307-6.66.432.664-.491-.077-.401-1.061-.24.035-.078.06-.04.1-.205-.278-.61-.373-.222-.35.125.004.053.026.063.035.11-.18.031-.281.037-.473.07-1.382.232-2.95.455-2.857-.202-2.207-.472-4.57-.276-6.662-.08-2.092.196-3.912.391-5.028-.082-2.258-.636-5.307-.57-8.19-.385-2.885.186-5.604.491-7.2.342-4.118-.406-10.714.046-13.44.096-2.644-.648-4.673.345-7.545-.405-.857.559-2.328.573-4.074.444-1.745-.13-3.764-.405-5.713-.424-1.273.642-3.48.454-5.463.307-.991-.074-1.927-.137-2.664-.08-.737.056-1.274.233-1.468.638-1.032-.63-3.617-.475-6.125-.275-2.508.2-4.94.442-5.662-.014-3.135.233-5.964.023-8.24.508-.443-.05-.785.045-1.28.039-.061-.213-.19-.297-.338.01-3.115.02-6.962.564-7.95.236-2.556.047-9.627.233-9.394.182-1.472.337-3.588-.02-5.713-.143-1.062-.06-2.128-.064-3.115.11-.986.173-1.894.523-2.646 1.164-1.34-.522-2.521-.718-3.61-.737-1.088-.02-2.081.137-3.045.32-1.926.368-3.73.842-5.912.225-.212.613-1.731.301-3.548.082-.91-.11-1.892-.196-2.823-.13-.93.064-1.81.28-2.511.775-3.312-.588-2.957-.317-7.526.039-1.311.08-3.455-.25-5.588-.397-2.132-.147-4.254-.111-5.523.694-.446.048-2.01-.239-3.531-.34-1.523-.102-3.004-.019-3.286.763-.664-.4-1.24-.578-1.726-.587a1.73 1.73 0 00-1.2.416C.199 5.471-.07 6.45.016 7.422.1 8.393.54 9.357 1.334 9.857c.397.25.883.385 1.457.348.574-.037 1.235-.246 1.987-.684 4.606-.454 10.232-.126 13.045-.566 4.79.004 10.648.036 13.875-.559 1.787.545 3.255.249 4.748-.03 1.492-.28 3.008-.544 4.888.062 8.472-.014 15.81-1.16 24.09-.92 1.68-.795 3.496-.808 5.197-.686 1.702.123 3.29.38 4.518.127 2.329-.405 4.442-.377 6.77-.293 2.327.084 4.87.225 8.066.05 5.034-.857 8.568-.661 14.789-.538 6.237.08 12.912-.444 19.02.133 3.483.242 6.803.038 10.099-.123 3.296-.162 6.57-.282 9.955.123 2.524-.065 5.397-.266 8.149-.285 2.75-.02 5.38.143 7.416.802.918-.836 2.042-.76 3.26-.611 1.217.15 2.527.372 3.814-.168 4.066.223 7.647.297 11.566.346 1.663-.18 3.356-.003 5.21.113 1.853.116 3.866.17 6.17-.258 1.017-.046 3.95.352 7.236.627 3.284.275 6.919.429 9.34-.105 5.37-.054 11.19.168 16.077.562 2.785.052 4.94-.234 7.018-.392 2.08-.159 4.082-.188 6.565.377 4.202.639 13.38.273 17.044.591 3.348-.582 5.338.135 10.06-.173 1.559.62 3.33.458 5.185.316 1.852-.142 3.785-.263 5.664.441 5.393.373 15.135.079 17.148.307 4.215.242 8.024.09 12.963.752 3.822.02 7.726.377 11.588.545 3.862.168 7.685.148 11.348-.584 2.403.806 4.606.827 6.785.728 2.179-.098 4.333-.315 6.636.018 1.14.745 3.078.413 4.883.13.903-.14 1.772-.27 2.494-.245.722.024 1.296.202 1.606.674 1.98-.345 4.007-.063 6.02.093 2.01.157 4.01.187 5.937-.658 1.734.653 3.124.834 4.496.873 1.372.04 2.728-.065 4.398.02 2.308-.182 4.658.065 6.96.158 2.3.093 4.552.034 6.663-.762 2.348.67 5.066.825 7.69.791 2.624-.034 5.154-.257 7.127-.344 1.926.027 3.64-.084 5.568-.08 1.927.005 4.067.125 6.846.612l.476-.235v-.002c1.6-.393 3.874-.488 6.274-.453 2.4.036 4.927.204 7.03.338 6.783-.646 13.755-.19 21.099-.537 3.316-.133 6.508-.39 9.7-.545 3.194-.154 6.389-.205 9.71.078 2.664-.64 5.37-.44 8.059-.357 1.344.041 2.684.055 4.01-.082 1.329-.137 2.643-.424 3.939-.979.996.505 1.839.694 2.607.713.769.02 1.463-.129 2.164-.299 1.403-.34 2.833-.763 4.932-.086 3.809.123 6.483-.25 9.064-.548 2.582-.3 5.07-.524 8.516-.102 6.266-.35 11.5-.905 17.344-.936 2.886.155 5.354-.14 7.642-.369 2.289-.228 4.398-.39 6.569.035 3.054-.76 5.49-.675 7.892-.627.834.017 1.684-.017 2.533-.046.01-.003.022.006.03 0 1.59-.057 3.232-.215 5.125-.805 1.507.723 3.745.613 5.98.41 2.235-.203 4.466-.499 5.955-.148 2.58-.35 5.2-.43 8.11-.559 5.586.294 9.136-.231 14.806.05 2.327-.74 5.607-.498 9.076-.19 3.47.307 7.128.681 10.21.2 6.788-.62 12.579.064 19.169-.464 2.832.392 6.216-.423 10.526.422 6.6-.237 13.33-.022 19.015-.723 2.27.343 5.398.694 8.532.83 3.133.136 6.27.056 8.558-.46 5.47.741 11.395.725 17.104.2 1.593-.326 2.596-.083 3.738.211 1.142.295 2.426.64 4.578.518 5.664.2 10.486-.626 15.086-.24 7.073.42 13.26.18 19.283-.051 2.743.635 8.525.7 13.557.263 5.375.427 12.79-.235 18.918.372 6.78-.52 10.856-.077 17.629.296 5.239-.052 8.335-.57 12.93.159 2.99-.276 6.277.053 9.654.283 3.377.23 6.844.358 10.195-.319 1.963.867 4.442.678 6.996.52 1.277-.079 2.572-.15 3.83-.078s2.48.289 3.608.785c5.872.024 11.268.443 16.316-.277 1.692.587 3.455.581 5.21.484 1.757-.097 3.506-.285 5.169-.06 1.198.793 3.91.805 6.824.708 2.915-.096 6.035-.302 8.047.057 5.21-.758 9.713-.004 15.465-.113 4.062-.467 7.324.067 10.978.1 3.116-.482 6.07-.254 9.01-.114 2.94.14 5.864.193 8.918-.64 1.466.47 3.227.705 5.158.798 1.932.093 4.035.044 6.19-.048 4.309-.186 8.82-.552 12.568-.33 2.169-.524 3.845-.483 5.475-.377 1.63.105 3.212.274 5.195.01 1.82.306 4.368.014 6.858-.124 1.526-.084 3.17.07 4.205-.076 3.182.556 6.386.55 9.644.49 3.259-.06 6.57-.173 9.967.168 1.898-.518 4.555-.196 7.514.1 2.958.296 6.217.563 9.324-.063 3.376-.059 6.622.215 9.78.338 3.16.123 6.236.094 9.277-.568 1.338.22 3.162.865 5.066.553 3.417.744 10.946.386 16.412.957 2.125-.14 4.069-.038 5.738-.02 1.67.018 3.066-.047 4.1-.52 2.248.33 4.749.747 7.393.952 2.643.205 5.43.198 8.25-.319 1.992.648 4.923.687 8.044.663 3.122-.025 6.435-.11 9.196.283.054.016.056-.03.11-.016.41.057.6.355 1.194.182 2.76-.394 6.076-.308 9.198-.283 3.122.024 6.052-.015 8.045-.663 2.819.517 5.606.524 8.25.319 2.644-.205 5.144-.621 7.392-.951 1.034.472 2.43.537 4.1.52 1.67-.019 3.61-.12 5.736.019 5.466-.571 12.995-.213 16.412-.957 1.904.312 3.73-.331 5.069-.551 3.04.662 6.115.69 9.275.566 3.16-.123 6.403-.397 9.78-.338 3.106.626 6.367.359 9.325.063 2.959-.296 5.614-.618 7.512-.1 3.397-.341 6.71-.228 9.969-.168 3.259.06 6.462.066 9.644-.49 1.035.146 2.678-.008 4.206.076 2.489.138 5.035.43 6.855.123 1.983.265 3.568.096 5.197-.01 1.63-.105 3.306-.146 5.475.377 3.747-.221 8.26.145 12.568.33 2.155.093 4.258.142 6.19.05 1.93-.094 3.692-.328 5.158-.8 3.054.834 5.976.781 8.916.641 2.94-.14 5.896-.368 9.012.113 3.655-.032 6.916-.566 10.978-.1 5.752.11 10.256-.644 15.465.114 2.012-.359 5.13-.153 8.045-.057 2.915.097 5.626.086 6.824-.708 1.663-.225 3.414-.037 5.17.06 1.756.097 3.519.103 5.21-.484 5.049.72 10.445.301 16.317.277 1.128-.496 2.348-.713 3.606-.785 1.258-.073 2.553-.001 3.83.078 2.554.158 5.035.347 6.998-.52 3.35.677 6.818.548 10.195.319 3.377-.23 6.664-.56 9.653-.283 4.596-.73 7.69-.21 12.93-.159 6.772-.373 10.85-.816 17.63-.296 6.127-.607 13.543.055 18.918-.372 5.032.436 10.814.372 13.557-.263 6.023.23 12.208.47 19.28.05 4.6-.385 9.425.44 15.089.24 2.152.123 3.434-.222 4.576-.517 1.142-.294 2.145-.537 3.738-.21 5.71.524 11.636.54 17.106-.202 2.287.517 5.423.597 8.556.461a84.112 84.112 0 008.534-.83c5.685.701 12.413.486 19.013.723 4.31-.845 7.696-.03 10.528-.422 6.59.528 12.38-.155 19.168.465 3.083.48 6.742.106 10.21-.202 3.47-.307 6.75-.548 9.077.192 5.67-.282 9.22.243 14.806-.051 2.91.129 5.53.21 8.11.559 1.49-.35 3.718-.055 5.953.148 2.235.203 4.475.315 5.982-.408 1.93.601 3.468.51 5.086.562-.014.213.085.296.323.036.72.015 1.567.266 2.279.251 2.402-.048 4.838-.134 7.892.627 2.17-.424 4.28-.263 6.569-.035 2.288.229 4.754.524 7.64.37 5.844.03 11.078.585 17.344.935 3.445-.422 5.936-.197 8.518.102 2.58.298 5.253.671 9.062.548 2.1-.677 3.53-.254 4.934.086.7.17 1.396.319 2.164.3.768-.02 1.61-.209 2.605-.714 1.296.555 2.612.842 3.94.979 1.327.137 2.667.123 4.012.082 2.688-.083 5.394-.283 8.056.357 3.323-.283 6.518-.232 9.71-.078 3.194.154 6.386.412 9.702.545 7.344.347 14.314-.109 21.096.537 2.104-.134 4.63-.302 7.03-.338 2.4-.035 4.677.06 6.277.453v.002l.474.235a38.625 38.625 0 016.848-.612c1.927-.004 3.64.107 5.566.08 1.973.087 4.503.31 7.127.344 2.624.034 5.344-.122 7.692-.79 2.11.795 4.362.854 6.664.76 2.3-.092 4.65-.339 6.959-.157 1.67-.085 3.026.02 4.398-.02 1.373-.039 2.762-.22 4.496-.873 1.927.845 3.926.815 5.938.658 2.012-.156 4.036-.438 6.017-.093.31-.472.886-.65 1.608-.674.722-.025 1.59.105 2.494.246 1.806.282 3.742.614 4.883-.131 2.303-.333 4.456-.116 6.634-.018 2.18.099 4.385.078 6.788-.728 3.663.732 7.485.752 11.347.584 3.863-.168 7.764-.523 11.586-.543 4.94-.662 8.748-.51 12.963-.752 2.013-.228 11.757.064 17.15-.309 1.879-.704 3.812-.583 5.665-.441 1.852.142 3.625.305 5.183-.316 4.723.308 6.713-.409 10.06.173 3.665-.318 12.844.048 17.046-.591 2.482-.565 4.485-.536 6.564-.377 2.079.158 4.233.444 7.018.392a185.63 185.63 0 0116.076-.562c2.422.534 6.057.38 9.342.105 3.284-.275 6.218-.673 7.236-.627 2.303.427 4.317.374 6.17.258 1.853-.116 3.546-.293 5.209-.113 3.919-.05 7.5-.123 11.566-.346 1.287.54 2.595.317 3.813.168 1.217-.15 2.343-.225 3.26.611 2.036-.659 4.666-.821 7.417-.802 2.752.019 5.625.22 8.149.285 3.386-.405 6.657-.285 9.953-.123 3.296.161 6.618.365 10.1.123 6.11-.577 12.784-.051 19.02-.131 6.222-.123 9.756-.32 14.79.535 3.195.176 5.739.035 8.067-.049 2.327-.084 4.438-.112 6.767.293 1.229.253 2.818-.004 4.52-.127 1.7-.122 3.515-.109 5.195.686 8.28-.24 15.62.906 24.092.92 1.88-.606 3.394-.343 4.887-.063 1.492.28 2.963.576 4.75.031 3.227.595 9.085.563 13.875.56 2.813.44 8.437.111 13.042.565.752.438 1.415.647 1.989.684.574.037 1.06-.097 1.457-.348.793-.5 1.23-1.464 1.316-2.435.085-.972-.183-1.951-.804-2.488a1.726 1.726 0 00-1.198-.416c-.487.01-1.062.186-1.726.587-.282-.782-1.765-.865-3.287-.763-1.523.101-3.086.388-3.532.34-1.27-.805-3.39-.84-5.523-.694-2.132.147-4.275.477-5.586.397-4.57-.356-4.213-.627-7.525-.04-.701-.494-1.581-.71-2.512-.775-.931-.065-1.914.022-2.822.131-1.817.219-3.337.53-3.55-.082-2.181.617-3.984.143-5.911-.224-.964-.184-1.957-.34-3.045-.32-1.088.018-2.27.214-3.61.736-.751-.641-1.661-.991-2.648-1.165-.987-.173-2.051-.17-3.113-.109-2.125.122-4.241.48-5.713.143.233.05-6.84-.135-9.397-.182-1.188.395-6.242-.665-9.566-.285-2.275-.485-5.103-.275-8.238-.508-.724.456-3.155.213-5.663.014-2.507-.2-5.093-.356-6.125.275-.194-.405-.731-.582-1.468-.639-.737-.056-1.675.007-2.666.08-1.984.148-4.188.336-5.461-.306-1.95.02-3.968.294-5.713.424-1.746.13-3.217.115-4.074-.444-2.872.75-4.901-.243-7.545.405-2.726-.05-9.324-.5-13.442-.094-1.596.15-4.313-.158-7.197-.344-2.884-.186-5.933-.25-8.191.385-1.116.473-2.936.278-5.028.082-2.091-.196-4.455-.392-6.662.08.092.657-1.477.434-2.86.201-.19-.032-.29-.038-.47-.068.01-.048.032-.058.035-.111.023-.347-.072-.735-.351-.125.04.164.066.127.1.205-.983-.161-1.724-.251-1.06.24-2.453-.125-4.573-.347-6.66-.432-2.085-.085-4.14-.034-6.46.387-2.567-.718-4.594-.536-6.448-.223-1.853.313-3.531.758-5.4.565-1.293-.191-4.447-.528-6.932.068-5.327-.106-8.862-.87-14.82-.252-3.112.756-6.233-.35-10.275.32-4.03-.142-6.587.683-8.766.442-4.041.123-3.995-.355-8.732.082-2.964.25-4.621-.376-8.955-.127-1.046.37-2.527.313-4.026.32-1.5.007-3.017.078-4.135.701-1.754-.739-3.38-.664-4.93-.47-1.55.193-3.023.506-4.474.244-2.61.27-6.78-.235-11.053.435-2.93.508-3.852-.324-6.402.373-1.856.105-3.631-.066-5.312-.134-1.682-.068-3.268-.035-4.752.48-1.164.043-8.374-.31-11.584.383-.84-.433-2.216-.259-3.54-.057-1.323.202-2.594.432-3.226.114-2.002-.248-2.966.017-3.703.164-.738.146-1.25.173-2.344-.55-1.306.853-2.75.89-4.3.792-1.551-.098-3.207-.33-4.94-.016-1.215.116-2.492-.064-3.81-.123-1.315-.06-2.671.003-4.04.598-1.145-.478-2.363-.325-3.806-.158-1.443.166-3.11.345-5.153-.086-1.7.528-3.67.444-5.595.357-1.927-.087-3.811-.175-5.34.34-2.708-.262-4.808-.08-6.864.033-2.055.114-4.066.16-6.595-.375-2.31.035-4.916.287-7.24.408-2.322.121-4.363.11-5.543-.379-1.861-.106-3.22.33-4.434.563-1.213.233-2.281.264-3.56-.652-4.188.656-4.266.47-9.372.507-3.086-.014-5.051-.261-7.088-.416-2.036-.154-4.142-.217-7.504.141-1.352.245-2.68.013-4.013-.123-1.333-.136-2.67-.175-4.037.455-1.417-.637-2.09-.79-2.93-.77-.841.021-1.852.216-3.947.27.062-.53-.58-.776-1.6-.865-1.02-.09-2.418-.023-3.87.072-2.9.19-6.011.493-6.718-.113-1.762.66-9.358-.474-11.83-.117-2.71-.018-3.64.5-7.262.052-4.617-.344-11.865-1.013-18.125-1.084-.97.42-1.834.552-2.63.54-.797-.013-1.525-.168-2.227-.323s-1.375-.309-2.06-.318a4.053 4.053 0 00-2.131.55c-.286-.435-1.07-.746-2.14-.958-1.07-.213-2.425-.327-3.86-.37-2.871-.085-6.056.115-7.885.391-.945-.639-1.706-.363-2.682-.191-.975.171-2.166.237-3.97-.823-3.394.111-7.374.524-10.057-.072-2.664.558-4.78.226-6.967-.08-2.187-.306-4.444-.586-7.39.08-1.344-.51-3.637-.763-6.237-.93-2.6-.166-5.508-.244-8.082-.4-5.407.662-7.15-.194-11.17.451-1.843-.976-4.031-.93-6.064-.826-2.033.105-3.911.27-5.133-.467-1.177.444-2.643.41-3.928.407-1.285-.004-2.39.022-2.842.582-1.45-.557-2.624-.69-3.914-.67-1.29.02-2.694.193-4.607.25-1.184-.45-2.42-.57-3.572-.532-1.154.038-2.226.234-3.09.418-.49-.696-1.578-.58-2.776-.382-1.197.197-2.505.476-3.435.101-.936-.186-1.795-.01-2.668.072-.874.082-1.762.07-2.758-.492-1.367.658-2.951.355-4.535.156-.792-.099-1.583-.172-2.348-.086-.765.087-1.503.335-2.187.874-.252-.45-.88-.694-1.733-.813-.852-.119-1.928-.112-3.076-.064-2.295.095-4.875.355-6.521.12-1.603-.113-4.085.037-6.625.114-2.541.076-5.14.08-6.975-.332-5.296-.073-7.68.59-12.33.19-2.456.231-3.34.417-4.115.417-.776 0-1.445-.185-3.473-.693-4.234.856-4.594.943-9.52.582-.422.485-1.38.111-2.392-.111-.506-.111-1.024-.185-1.496-.094-.472.09-.898.346-1.215.89-.793-.706-2.053-.797-3.248-.736-1.195.061-2.323.272-2.855.168-1.53.421-2.107.32-3.012.176-.906-.144-2.14-.33-4.985-.08.04.426-1.508.265-3.24.129-.654-.052-1.006.115-1.637.103.057-.033.097-.178.108-.343.022-.347-.07-.733-.35-.123.09.374.168.48.229.466-1.031-.018-2.257-.153-2.682.17-1.314.197-2.097-.001-3.006-.127-.908-.125-1.942-.179-3.763.31-1.286-.412-3.792-.605-6.57-.671-2.78-.066-5.832-.006-8.208.092-1.182.514-2.283.331-3.525.238-1.242-.093-2.624-.097-4.373.773-1.613-.274-3.278-.454-4.922-.449-1.644.005-3.27.196-4.81.658-.384-.534-1.54-.683-2.721-.677a19.278 19.278 0 00-2.873.25c-3.997-.122-10.424-.064-12.104.183-4.187-.463-7.486-.457-12.62-.076-1.364-.083-2.842-.293-4.347-.365-1.505-.072-3.036-.006-4.511.46a7.214 7.214 0 00-2.81-.452c-1.122.035-2.508.293-4.397.883-1.256-.867-2.157-.713-3.155-.541-.997.171-2.092.36-3.738-.434-4.121 1.13-6.248.637-8.078.852-2.121-.417-3.606-.281-5.145-.114-1.54.167-3.131.366-5.47.07-4.783.67-5.99.742-8.614.047-.16.486-.57.68-1.144.725-.574.045-1.314-.06-2.14-.174-.823-.113-1.732-.235-2.645-.222-.913.012-1.83.16-2.668.582-3.305-.196-8.075.065-8.897.123-.422-.5-1.1-.257-2.043-.047-.944.21-2.155.385-3.646-.252-1.987.366-4.158.277-6.371.318-2.214.041-4.47.212-6.623 1.1-.725-.603-1.942-.634-3.282-.526-1.34.11-2.8.357-4.007.313-1.557-.498-2.303-.186-2.803.01s-.755.275-1.33-.688c-1.474.653-3.033.847-4.578.813-1.546-.034-3.077-.295-4.502-.55-1.314.394-3.517.245-5.774.151-2.256-.094-4.566-.133-6.092.477a13.565 13.565 0 00-3.38-.444c-1.307-.006-2.84.164-4.727.623-2.302-.488-3.38-.597-4.584-.578-1.204.02-2.535.17-5.346.2-1.073-.066-1.295.002-1.802.037.025-.069.06-.11.068-.213.01-.173-.01-.356-.062-.42-.056-.064-.15-.01-.29.295.067.273.117.289.168.34-.35.026-1.062.016-1.304.027-.598.028-1.087-.07-2.567-.697-1.91.597-4.434.6-6.611.55-2.177-.05-4.008-.152-4.535.23-3.56-.504-5.532.13-9.496-.454-1.555.44-2.562.106-3.744-.123-1.183-.23-2.541-.355-4.795.502-1.32-.05-3.17-.43-5.15-.643-1.98-.212-4.09-.257-5.934.36-1.314-.6-3.954-.562-6.334-.387-2.38.175-4.503.487-4.778.437-1.69.188-2.677-.132-3.744-.38-1.067-.25-2.213-.428-4.224.037-2.013-.485-4.096-.12-6.16.154-2.065.273-4.111.455-6.05-.395-2.607.62-5.834.476-9.175.344-3.341-.132-6.797-.252-9.865.42-3.35-.46-5.964.423-8.58.176-.506.228-2.081-.066-4.051-.205-1.97-.14-4.335-.125-6.424.724-1.276-.484-3.324-.307-5.357-.183-2.034.123-4.054.195-5.272-.5-1.09.928-2.912 1.018-4.64.959-1.725-.06-3.355-.27-4.057.05-2.195-.174-5.04-.47-7.938-.458-2.898.01-5.85.328-8.258 1.382-.965-.453-2.795-.45-4.447-.306.03-.068.067-.122.074-.237.023-.346-.072-.734-.351-.125.073.3.129.336.183.373-.805.075-1.711.125-2.16.282-2.048-.229-3.906-.47-5.886-.512-1.98-.043-4.083.112-6.618.678-2.693-.583-2.397-.105-5.543.035-.342-.144-.588-.024-.857.03.062-.03.124-.03.19-.233-.196-.285-.318-.355-.385-.317-.068.038-.08.184-.055.328.017.101.068.162.115.225-.17.039-.365.007-.55.02-.041-.029-.042-.091-.086-.118-.784-.468-1.813-.606-3.016-.101-1.186-.053-1.665-.145-2.217-.219.04-.054.075-.017.115-.139-.394-.57-.491-.277-.441.012.01.046.038.06.053.102-.8-.102-1.5-.128-3.053.209-2.535-.566-4.635-.72-6.615-.678-1.98.043-3.84.283-5.887.512-.45-.157-1.354-.207-2.16-.282.054-.037.11-.073.183-.373-.28-.61-.374-.22-.351.125.01.115.043.169.074.237-1.653-.143-3.483-.147-4.45.306-2.408-1.054-5.36-1.373-8.257-1.384-2.898-.012-5.741.286-7.936.46-.702-.32-2.332-.11-4.058-.05s-3.55-.031-4.64-.96c-1.218.696-3.237.624-5.27.5-2.034-.123-4.082-.3-5.358.184-2.09-.849-4.454-.864-6.424-.724-1.97.139-3.544.433-4.05.205-2.616.247-5.231-.636-8.58-.176-3.07-.672-6.527-.552-9.868-.42-3.34.132-6.565.277-9.173-.344-1.938.85-3.985.668-6.05.395-2.064-.274-4.147-.64-6.16-.154-2.01-.465-3.16-.286-4.226-.038-1.067.25-2.054.569-3.744.381-.275.05-2.395-.262-4.775-.437-2.381-.175-5.02-.213-6.334.387-1.844-.617-3.956-.572-5.936-.36-1.98.213-3.828.593-5.148.643-2.254-.857-3.613-.732-4.795-.502-1.183.23-2.19.564-3.745.123-3.963.585-5.936-.052-9.496.453-.527-.383-2.36-.278-4.537-.229-2.177.05-4.7.047-6.61-.55-1.48.626-1.968.725-2.565.697-.242-.011-.954 0-1.305-.027.05-.051.1-.067.166-.34-.28-.61-.372-.221-.35.125.007.103.043.144.069.213-.508-.035-.73-.103-1.803-.037-2.81-.03-4.142-.18-5.346-.2-1.204-.02-2.281.09-4.584.578-1.888-.459-3.42-.63-4.726-.625a13.56 13.56 0 00-3.381.446c-1.526-.61-3.836-.571-6.092-.477-2.257.094-4.46.243-5.773-.15-1.425.254-2.96.515-4.504.549-1.546.034-3.103-.16-4.577-.813-.575.963-.83.884-1.33.688-.5-.196-1.246-.508-2.802-.01-1.21.044-2.67-.204-4.008-.313-1.34-.108-2.557-.077-3.281.526-2.154-.888-4.41-1.059-6.623-1.1-2.214-.04-4.385.048-6.372-.318-1.491.637-2.702.461-3.646.252-.944-.21-1.622-.453-2.045.047-.822-.058-5.59-.32-8.894-.123-.84-.423-1.756-.57-2.668-.582-.913-.013-1.822.11-2.647.222-.825.113-1.564.219-2.14.174-.573-.045-.982-.239-1.143-.725-2.625.695-3.83.624-8.613-.046-2.34.295-3.932.096-5.471-.07-1.54-.168-3.024-.305-5.145.112-1.83-.215-3.957.28-8.078-.851-1.645.795-2.74.605-3.738.434-.998-.172-1.898-.326-3.154.54-1.89-.59-3.275-.847-4.397-.882a7.214 7.214 0 00-2.81.453c-1.475-.467-3.007-.533-4.512-.461-1.505.072-2.983.282-4.348.365-5.133-.38-8.432-.387-12.62.076-1.68-.247-8.105-.305-12.102-.183a19.278 19.278 0 00-2.873-.25c-1.182-.006-2.338.143-2.723.677-1.54-.462-3.166-.653-4.81-.658-.35 0-.697.081-1.048.096.024-.047.045-.01.069-.082-.395-.57-.492-.277-.442.012.008.044.037.058.05.1-1.19.065-2.385.125-3.55.323-1.75-.87-3.133-.866-4.375-.773-1.241.093-2.34.276-3.523-.238-2.376-.098-5.428-.158-8.207-.092-2.78.066-5.285.26-6.57.672-1.822-.49-2.857-.436-3.766-.31-.908.125-1.69.323-3.004.126-.425-.323-1.651-.188-2.683-.17.06.013.139-.092.23-.466-.28-.61-.374-.224-.352.123.01.165.05.31.108.343-.63.012-.981-.155-1.635-.103-1.732.136-3.283.295-3.242-.131-2.845-.249-4.077-.062-4.982.082-.906.144-1.483.245-3.012-.176-.533.104-1.663-.107-2.858-.168-1.194-.06-2.454.03-3.248.737-.317-.545-.74-.8-1.213-.891-.471-.09-.99-.018-1.496.094-1.011.222-1.97.596-2.392.111-4.925.361-5.288.274-9.522-.582zm771.655 1.545c.194.585.392.298.442.01.05-.29-.047-.58-.442-.01zm-1260.69.152c-.194.585-.39.3-.44.012-.05-.289.045-.582.44-.012zm1819.41.166c.193.585.39.3.44.012.05-.289-.046-.582-.44-.012zm-905.281 4.16c.193.585.39.3.44.012.05-.289-.046-.582-.44-.012zm655.36.32c.193.586.39.301.44.012.05-.288-.046-.581-.44-.011z"/></svg>