<svg width="11.678" height="2168.937" fill="#ec0000" xmlns="http://www.w3.org/2000/svg"><path d="M.002 1505.137c.508 2.026.693 2.694.693 3.47 0 .775-.186 1.66-.418 4.115.4 4.65-.264 7.034-.191 12.33.112.5.034 1.3.092 1.896.013-.072.023-.145.242-.297.585.194.3.392.012.442a.376.376 0 01-.25-.04c.144 1.572.293 3.161.238 4.973-.077 2.541-.227 5.023-.113 6.625.234 1.647-.026 4.23-.121 6.524-.048 1.147-.055 2.222.064 3.074.119.852.362 1.48.813 1.733-.54.684-.787 1.422-.874 2.187-.086.765-.013 1.556.086 2.348.199 1.583.502 3.167-.156 4.535.562.995.574 1.884.492 2.758-.082.873-.258 1.732-.072 2.668.375.93.096 2.237-.101 3.435-.198 1.198-.314 2.287.382 2.776-.184.864-.38 1.938-.418 3.091-.037 1.154.083 2.387.532 3.57-.057 1.914-.23 3.318-.25 4.608-.02 1.29.113 2.464.67 3.914-.56.452-.586 1.557-.582 2.842 0 1.285.037 2.75-.407 3.928.736 1.222.57 3.1.465 5.133-.105 2.032-.148 4.22.828 6.064-.645 4.02.211 5.765-.45 11.172.155 2.573.233 5.48.4 8.08.166 2.6.42 4.895.93 6.24-.667 2.945-.387 5.202-.08 7.39.305 2.185.637 4.3.08 6.964.595 2.683.182 6.665.071 10.06 1.06 1.803.994 2.992.823 3.967-.172.975-.448 1.737.191 2.682-.276 1.83-.476 5.013-.39 7.884.042 1.436.156 2.792.369 3.862.212 1.07.523 1.852.959 2.138a4.053 4.053 0 00-.551 2.131c.01.686.163 1.36.318 2.06.155.702.31 1.433.322 2.23a6.242 6.242 0 01-.539 2.63c.071 6.26.74 13.506 1.084 18.123.448 3.623-.07 4.553-.052 7.264-.357 2.472.778 10.068.117 11.83.606.707.301 3.816.111 6.717-.095 1.45-.16 2.85-.07 3.87s.335 1.661.865 1.6c-.054 2.094-.249 3.104-.27 3.946-.02.841.133 1.513.77 2.93-.63 1.367-.59 2.704-.455 4.037.022.215 0 .433.02.648-.035-.015-.01-.026-.051-.04-.57.394-.277.49.011.44.023-.01.03-.02.051-.027.11.993.275 1.984.092 2.992-.358 3.362-.295 5.468-.14 7.504.154 2.036.4 4.004.415 7.09-.038 5.106.149 5.184-.507 9.373.916 1.278.885 2.343.652 3.557-.233 1.213-.669 2.574-.563 4.435.49 1.18.5 3.22.38 5.543-.122 2.323-.374 4.93-.409 7.24.535 2.528.49 4.54.375 6.594-.114 2.056-.297 4.156-.035 6.863-.515 1.53-.425 3.414-.338 5.34.087 1.927.171 3.898-.357 5.598.431 2.042.252 3.71.086 5.152-.167 1.443-.32 2.662.158 3.807-.595 1.368-.657 2.723-.598 4.04.06 1.315.24 2.593.123 3.808-.313 1.733-.082 3.39.016 4.941.098 1.55.061 2.993-.791 4.3.722 1.094.695 1.605.549 2.343-.147.737-.412 1.701-.164 3.703.318.632.088 1.905-.114 3.228-.202 1.324-.376 2.698.057 3.537-.529 2.45-.457 6.56-.408 9.203-.108.056-.086.122 0 .21.013.714.032 1.92.023 2.171-.515 1.484-.548 3.073-.48 4.754.068 1.681.239 3.454.134 5.31-.697 2.55.135 3.472-.373 6.403-.67 4.273-.165 8.442-.435 11.053.262 1.45-.05 2.926-.244 4.476-.194 1.55-.269 3.176.47 4.93-.623 1.118-.694 2.634-.7 4.133-.01 1.5.047 2.98-.323 4.025-.249 4.334.38 5.991.129 8.955-.437 4.737.04 4.694-.082 8.735.24 2.18-.584 4.733-.442 8.763-.67 4.042.436 7.164-.32 10.276-.618 5.958.146 9.493.252 14.82-.596 2.485-.26 5.64-.068 6.932.193 1.868-.252 3.547-.565 5.4-.313 1.853-.497 3.88.221 6.447-.42 2.322-.47 4.375-.385 6.461.085 2.086.307 4.207.432 6.66-.491-.664-.401.077-.24 1.061-.078-.035-.04-.06-.205-.1-.61.278-.222.373.125.35.053 0 .063-.026.11-.035.031.18.037.281.07.473.232 1.382.455 2.95-.202 2.857-.472 2.207-.276 4.57-.08 6.662.196 2.092.391 3.912-.082 5.028-.636 2.258-.57 5.307-.385 8.19.186 2.885.491 5.604.342 7.2-.406 4.118.046 10.714.096 13.44-.648 2.644.345 4.673-.405 7.545.559.857.573 2.328.444 4.074-.13 1.745-.405 3.764-.424 5.713.642 1.273.454 3.48.307 5.463-.074.991-.137 1.927-.08 2.664.056.737.233 1.274.638 1.468-.63 1.032-.475 3.617-.275 6.125.2 2.508.442 4.94-.014 5.662.233 3.135.023 5.964.508 8.24-.05.443.045.785.039 1.28-.213.061-.297.19.01.338.02 3.115.564 6.962.236 7.95.047 2.556.233 9.627.182 9.394.337 1.472-.02 3.588-.143 5.713-.06 1.062-.064 2.128.11 3.115.173.986.523 1.894 1.164 2.646-.522 1.34-.718 2.521-.737 3.61-.02 1.088.137 2.081.32 3.045.368 1.926.842 3.73.225 5.912.613.212.301 1.731.082 3.548-.11.91-.196 1.892-.13 2.823.064.93.28 1.81.775 2.511-.588 3.312-.317 2.957.039 7.526.08 1.311-.25 3.455-.397 5.588-.147 2.132-.111 4.254.694 5.523.048.446-.239 2.01-.34 3.531-.102 1.523-.019 3.004.763 3.286-.4.664-.578 1.24-.587 1.726a1.73 1.73 0 00.416 1.2c.537.621 1.516.89 2.488.804.971-.084 1.935-.524 2.435-1.318.25-.397.385-.883.348-1.457-.037-.574-.246-1.235-.684-1.987-.454-4.606-.126-10.232-.566-13.045 0-4.79.036-10.648-.559-13.875.545-1.787.249-3.255-.03-4.748-.28-1.492-.544-3.008.062-4.888-.014-8.472-1.16-15.81-.92-24.09-.795-1.68-.808-3.496-.686-5.197.123-1.702.38-3.29.127-4.518-.405-2.329-.377-4.442-.293-6.77.084-2.327.225-4.87.05-8.066-.857-5.034-.661-8.568-.538-14.789.08-6.237-.444-12.912.133-19.02.242-3.483.038-6.803-.123-10.099-.162-3.296-.282-6.57.123-9.955-.065-2.524-.266-5.397-.285-8.149-.02-2.75.143-5.38.802-7.416-.836-.918-.76-2.042-.611-3.26.15-1.217.372-2.527-.168-3.814.223-4.066.297-7.647.346-11.566-.18-1.663 0-3.356.113-5.21.116-1.853.17-3.866-.258-6.17-.046-1.017.352-3.95.627-7.236.275-3.284.429-6.919-.105-9.34-.054-5.37.168-11.19.562-16.077.052-2.785-.234-4.94-.392-7.018-.159-2.08-.188-4.082.377-6.565.639-4.202.273-13.38.591-17.044-.582-3.348.135-5.338-.173-10.06.62-1.559.458-3.33.316-5.185-.142-1.852-.263-3.785.441-5.664.373-5.393.079-15.135.307-17.148.242-4.215.09-8.024.752-12.963.02-3.822.377-7.726.545-11.588.168-3.862.148-7.685-.584-11.348.806-2.403.827-4.606.728-6.785-.098-2.179-.315-4.333.018-6.636.745-1.14.413-3.078.13-4.883-.14-.903-.27-1.772-.245-2.494.024-.722.202-1.296.674-1.606-.345-1.98-.063-4.007.093-6.02.157-2.01.187-4.01-.658-5.937.653-1.734.834-3.124.873-4.496.04-1.372-.065-2.728.02-4.398-.182-2.308.065-4.658.158-6.96.093-2.3.034-4.552-.762-6.663.67-2.348.825-5.066.791-7.69-.034-2.624-.257-5.154-.344-7.127.027-1.926-.084-3.64-.08-5.568.01-1.927.125-4.067.612-6.846l-.235-.476c-.393-1.6-.488-3.874-.453-6.274.036-2.4.204-4.927.338-7.03-.646-6.783-.19-13.755-.537-21.099-.133-3.316-.39-6.508-.545-9.7-.154-3.194-.205-6.389.078-9.71-.64-2.664-.44-5.37-.357-8.059.041-1.344.055-2.684-.082-4.01-.137-1.329-.424-2.643-.979-3.939.505-.996.694-1.839.713-2.607.02-.769-.129-1.463-.299-2.164-.34-1.403-.763-2.833-.086-4.932.123-3.809-.25-6.483-.548-9.064-.3-2.582-.524-5.07-.102-8.516-.35-6.266-.905-11.5-.936-17.344.155-2.886-.14-5.354-.369-7.642-.228-2.289-.39-4.398.035-6.569-.76-3.054-.675-5.49-.627-7.892.017-.834-.017-1.684-.046-2.533 0-.01.01-.022 0-.03-.057-1.59-.215-3.232-.805-5.125.723-1.507.613-3.745.41-5.98-.203-2.235-.499-4.466-.148-5.955-.35-2.58-.43-5.2-.559-8.11.294-5.586-.231-9.136.05-14.806-.74-2.327-.498-5.607-.19-9.076.307-3.47.681-7.128.2-10.21-.62-6.788.064-12.579-.464-19.169.392-2.832-.423-6.216.422-10.526-.237-6.6-.022-13.33-.723-19.015.343-2.27.694-5.398.83-8.532.136-3.133.056-6.27-.46-8.558.741-5.47.725-11.395.2-17.104-.326-1.593-.083-2.596.211-3.738.295-1.142.64-2.426.518-4.578.2-5.664-.626-10.486-.24-15.086.42-7.073.18-13.26-.051-19.283.635-2.743.7-8.525.263-13.557.427-5.375-.235-12.79.372-18.918-.52-6.78-.077-10.856.296-17.629-.052-5.239-.57-8.335.159-12.93-.276-2.99.053-6.277.283-9.654.23-3.377.358-6.844-.319-10.195.867-1.963.678-4.442.52-6.996-.079-1.277-.15-2.572-.078-3.83s.289-2.48.785-3.608c.024-5.872.443-11.268-.277-16.316.587-1.692.581-3.455.484-5.21-.097-1.757-.285-3.506-.06-5.169.793-1.198.805-3.91.708-6.824-.096-2.915-.302-6.035.057-8.047-.758-5.21 0-9.713-.113-15.465-.467-4.062.067-7.324.1-10.978-.482-3.116-.254-6.07-.114-9.01.14-2.94.193-5.864-.64-8.918.47-1.466.705-3.227.798-5.158.093-1.932.044-4.035-.048-6.19-.186-4.309-.552-8.82-.33-12.568-.524-2.169-.483-3.845-.377-5.475.105-1.63.274-3.212.01-5.195.306-1.82.014-4.368-.124-6.858-.084-1.526.07-3.17-.076-4.205.556-3.182.55-6.386.49-9.644-.06-3.259-.173-6.57.168-9.967-.518-1.898-.196-4.555.1-7.514.296-2.958.563-6.217-.063-9.324-.059-3.376.215-6.622.338-9.78.123-3.16.094-6.236-.568-9.277.22-1.338.865-3.162.553-5.066.744-3.417.386-10.946.957-16.412-.14-2.125-.038-4.069-.02-5.738.018-1.67-.047-3.066-.52-4.1.33-2.248.747-4.749.952-7.393.205-2.643.198-5.43-.319-8.25.648-1.992.687-4.923.663-8.044-.025-3.122-.11-6.435.283-9.196.016-.054-.03-.056-.016-.11.057-.41.355-.6.182-1.194-.394-2.76-.308-6.076-.283-9.198.024-3.122-.015-6.052-.663-8.045.517-2.819.524-5.606.319-8.25-.205-2.644-.621-5.144-.951-7.392.472-1.034.537-2.43.52-4.1-.019-1.67-.12-3.61.019-5.736-.571-5.466-.213-12.995-.957-16.412.312-1.904-.331-3.73-.551-5.069.662-3.04.69-6.115.566-9.275-.123-3.16-.397-6.403-.338-9.78.626-3.106.359-6.367.063-9.325-.296-2.959-.618-5.614-.1-7.512-.341-3.397-.228-6.71-.168-9.969.06-3.259.066-6.462-.49-9.644.146-1.035-.01-2.678.076-4.206.138-2.489.43-5.035.123-6.855.265-1.983.096-3.568-.01-5.197-.105-1.63-.146-3.306.377-5.475-.221-3.747.145-8.26.33-12.568.093-2.155.142-4.258.05-6.19-.094-1.93-.328-3.692-.8-5.158.834-3.054.781-5.976.641-8.916-.14-2.94-.368-5.896.113-9.012-.032-3.655-.566-6.916-.1-10.978.11-5.752-.644-10.256.114-15.465-.359-2.012-.153-5.13-.057-8.045.097-2.915.086-5.626-.708-6.824-.225-1.663-.037-3.414.06-5.17.097-1.756.103-3.519-.484-5.21.72-5.049.301-10.445.277-16.317-.496-1.128-.713-2.348-.785-3.606-.073-1.258-.001-2.553.078-3.83.158-2.554.347-5.035-.52-6.998.677-3.35.548-6.818.319-10.195-.23-3.377-.56-6.664-.283-9.653-.73-4.596-.21-7.69-.159-12.93-.373-6.772-.816-10.85-.296-17.63-.607-6.127.055-13.543-.372-18.918.436-5.032.372-10.814-.263-13.557.23-6.023.47-12.208.05-19.28-.385-4.6.44-9.425.24-15.089.123-2.152-.222-3.434-.517-4.576-.294-1.142-.537-2.145-.21-3.738.524-5.71.54-11.636-.202-17.106.517-2.287.597-5.423.461-8.556a84.112 84.112 0 00-.83-8.534c.701-5.685.486-12.413.723-19.013-.845-4.31-.03-7.696-.422-10.528.528-6.59-.155-12.38.465-19.168.48-3.083.106-6.742-.202-10.21-.307-3.47-.548-6.75.192-9.077-.282-5.67.243-9.22-.051-14.806.129-2.91.21-5.53.559-8.11-.35-1.49-.055-3.718.148-5.953.203-2.235.315-4.475-.408-5.982.601-1.93.51-3.468.562-5.086.213.014.296-.085.036-.323.015-.72.266-1.567.251-2.279-.048-2.402-.134-4.838.627-7.892-.424-2.17-.263-4.28-.035-6.569.229-2.288.524-4.754.37-7.64.03-5.844.585-11.078.935-17.344-.422-3.445-.197-5.936.102-8.518.298-2.58.671-5.253.548-9.062-.677-2.1-.254-3.53.086-4.934.17-.7.319-1.396.3-2.164-.02-.768-.209-1.61-.714-2.605.555-1.296.842-2.612.979-3.94.137-1.327.123-2.667.082-4.012-.083-2.688-.283-5.394.357-8.056-.283-3.323-.232-6.518-.078-9.71.154-3.194.412-6.386.545-9.702.347-7.344-.109-14.314.537-21.096-.134-2.104-.302-4.63-.338-7.03-.035-2.4.06-4.677.453-6.277l.235-.474a38.625 38.625 0 01-.612-6.848c0-1.927.107-3.64.08-5.566.087-1.973.31-4.503.344-7.127.034-2.624-.122-5.344-.79-7.692.795-2.11.854-4.362.76-6.664-.092-2.3-.339-4.65-.157-6.959-.085-1.67.02-3.026-.02-4.398-.039-1.373-.22-2.762-.873-4.496.845-1.927.815-3.926.658-5.938-.156-2.012-.438-4.036-.093-6.017-.472-.31-.65-.886-.674-1.608-.025-.722.105-1.59.246-2.494.282-1.806.614-3.742-.131-4.883-.333-2.303-.116-4.456-.018-6.634.099-2.18.078-4.385-.728-6.788.732-3.663.752-7.485.584-11.347-.168-3.863-.523-7.764-.543-11.586-.662-4.94-.51-8.748-.752-12.963-.228-2.013.064-11.757-.309-17.15-.704-1.879-.583-3.812-.441-5.665.142-1.852.305-3.625-.316-5.183.308-4.723-.409-6.713.173-10.06-.318-3.665.048-12.844-.591-17.046-.565-2.482-.536-4.485-.377-6.564.158-2.079.444-4.233.392-7.018a185.63 185.63 0 01-.562-16.076c.534-2.422.38-6.057.105-9.342-.275-3.284-.673-6.218-.627-7.236.427-2.303.374-4.317.258-6.17-.116-1.853-.293-3.546-.113-5.209-.05-3.919-.123-7.5-.346-11.566.54-1.287.317-2.595.168-3.813-.15-1.217-.225-2.343.611-3.26-.659-2.036-.821-4.666-.802-7.417.019-2.752.22-5.625.285-8.149-.405-3.386-.285-6.657-.123-9.953.161-3.296.365-6.618.123-10.1-.577-6.11-.051-12.784-.131-19.02-.123-6.222-.32-9.756.535-14.79.176-3.195.035-5.739-.049-8.067-.084-2.327-.112-4.438.293-6.767.253-1.229 0-2.818-.127-4.52-.122-1.7-.109-3.515.686-5.195-.24-8.28.906-15.62.92-24.092-.606-1.88-.343-3.394-.063-4.887.28-1.492.576-2.963.031-4.75.595-3.227.563-9.085.56-13.875.44-2.813.111-8.437.565-13.042.438-.752.647-1.415.684-1.989.037-.574-.097-1.06-.348-1.457C9.523.538 8.559.101 7.588.015 6.616-.07 5.637.198 5.1.82a1.726 1.726 0 00-.416 1.198c.01.487.186 1.062.587 1.726-.782.282-.865 1.765-.763 3.287.101 1.523.388 3.086.34 3.532-.805 1.27-.84 3.39-.694 5.523.147 2.132.477 4.275.397 5.586-.356 4.57-.627 4.213-.04 7.525-.494.701-.71 1.581-.775 2.512-.065.931.022 1.914.131 2.822.219 1.817.53 3.337-.082 3.55.617 2.181.143 3.984-.224 5.911-.184.964-.34 1.957-.32 3.045.018 1.088.214 2.27.736 3.61-.641.751-.991 1.661-1.165 2.648-.173.987-.17 2.051-.109 3.113.122 2.125.48 4.241.143 5.713.05-.233-.135 6.84-.182 9.397.395 1.188-.665 6.242-.285 9.566-.485 2.275-.275 5.103-.508 8.238.456.724.213 3.155.014 5.663-.2 2.507-.356 5.093.275 6.125-.405.194-.582.731-.639 1.468-.056.737.01 1.675.08 2.666.148 1.984.336 4.188-.306 5.461.02 1.95.294 3.968.424 5.713.13 1.746.115 3.217-.444 4.074.75 2.872-.243 4.901.405 7.545-.05 2.726-.5 9.324-.094 13.442.15 1.596-.158 4.313-.344 7.197-.186 2.884-.25 5.933.385 8.191.473 1.116.278 2.936.082 5.028-.196 2.091-.392 4.455.08 6.662.657-.092.434 1.477.201 2.86-.032.19-.038.29-.068.47-.048-.01-.058-.032-.111-.035-.347-.023-.735.072-.125.351.164-.04.127-.066.205-.1-.161.983-.251 1.724.24 1.06-.125 2.453-.347 4.573-.432 6.66-.085 2.085-.034 4.14.387 6.46-.718 2.567-.536 4.594-.223 6.448.313 1.853.758 3.531.565 5.4-.191 1.293-.528 4.447.068 6.932-.106 5.327-.87 8.862-.252 14.82.756 3.112-.35 6.233.32 10.275-.142 4.03.683 6.587.442 8.766.123 4.041-.355 3.995.082 8.732.25 2.964-.376 4.621-.127 8.955.37 1.046.313 2.527.32 4.026.01 1.5.078 3.017.701 4.135-.739 1.754-.664 3.38-.47 4.93.193 1.55.506 3.023.244 4.474.27 2.61-.235 6.78.435 11.053.508 2.93-.324 3.852.373 6.402.105 1.856-.066 3.631-.134 5.312-.068 1.682-.035 3.268.48 4.752.043 1.164-.31 8.374.383 11.584-.433.84-.259 2.216-.057 3.54.202 1.323.432 2.594.114 3.226-.248 2.002.017 2.966.164 3.703.146.738.173 1.25-.55 2.344.853 1.306.89 2.75.792 4.3-.098 1.551-.33 3.207-.016 4.94.116 1.215-.064 2.492-.123 3.81-.06 1.315 0 2.671.598 4.04-.478 1.145-.325 2.363-.158 3.806.166 1.443.345 3.11-.086 5.153.528 1.7.444 3.67.357 5.595-.087 1.927-.175 3.811.34 5.34-.262 2.708-.08 4.808.033 6.864.114 2.055.16 4.066-.375 6.595.035 2.31.287 4.916.408 7.24.121 2.322.11 4.363-.379 5.543-.106 1.861.33 3.22.563 4.434.233 1.213.264 2.281-.652 3.56.656 4.188.47 4.266.507 9.372-.014 3.086-.261 5.051-.416 7.088-.154 2.036-.217 4.142.141 7.504.245 1.352.013 2.68-.123 4.013-.136 1.333-.175 2.67.455 4.037-.637 1.417-.79 2.09-.77 2.93.021.841.216 1.852.27 3.947-.53-.062-.776.58-.865 1.6-.09 1.02-.023 2.418.072 3.87.19 2.9.493 6.011-.113 6.718.66 1.762-.474 9.358-.117 11.83-.018 2.71.5 3.64.052 7.262-.344 4.617-1.013 11.865-1.084 18.125.42.97.552 1.834.54 2.63-.013.797-.168 1.525-.323 2.227s-.309 1.375-.318 2.06a4.053 4.053 0 00.55 2.131c-.435.286-.746 1.07-.958 2.14-.213 1.07-.327 2.425-.37 3.86-.085 2.871.115 6.056.391 7.885-.639.945-.363 1.706-.191 2.682.171.975.237 2.166-.823 3.97.111 3.394.524 7.374-.072 10.057.558 2.664.226 4.78-.08 6.967-.306 2.187-.586 4.444.08 7.39-.51 1.344-.763 3.637-.93 6.237-.166 2.6-.244 5.508-.4 8.082.662 5.407-.194 7.15.451 11.17-.976 1.843-.93 4.031-.826 6.064.105 2.033.27 3.911-.467 5.133.444 1.177.41 2.643.407 3.928 0 1.285.022 2.39.582 2.842-.557 1.45-.69 2.624-.67 3.914.02 1.29.193 2.694.25 4.607-.45 1.184-.57 2.42-.532 3.572.038 1.154.234 2.226.418 3.09-.696.49-.58 1.578-.382 2.776.197 1.197.476 2.505.101 3.435-.186.936-.01 1.795.072 2.668.082.874.07 1.762-.492 2.758.658 1.367.355 2.951.156 4.535-.099.792-.172 1.583-.086 2.348.087.765.335 1.503.874 2.187-.45.252-.694.88-.813 1.733-.119.852-.112 1.928-.064 3.076.095 2.295.355 4.875.12 6.521-.113 1.603.037 4.085.114 6.625.076 2.541.08 5.14-.332 6.975-.073 5.296.59 7.68.19 12.33.231 2.456.417 3.34.417 4.115 0 .776-.185 1.445-.693 3.473.856 4.234.943 4.594.582 9.52.485.422.111 1.38-.111 2.392-.111.506-.185 1.024-.094 1.496.09.472.346.898.89 1.215-.706.793-.797 2.053-.736 3.248.061 1.195.272 2.323.168 2.855.421 1.53.32 2.107.176 3.012-.144.906-.33 2.14-.08 4.985.426-.04.265 1.508.129 3.24-.052.654.115 1.006.103 1.637-.033-.057-.178-.097-.343-.108-.347-.022-.733.07-.123.35.374-.09.48-.168.466-.229-.018 1.031-.153 2.257.17 2.682.197 1.314-.001 2.097-.127 3.006-.125.908-.179 1.942.31 3.763-.412 1.286-.605 3.792-.671 6.57-.066 2.78-.01 5.832.092 8.208.514 1.182.331 2.283.238 3.525-.093 1.242-.097 2.624.773 4.373-.274 1.613-.454 3.278-.449 4.922.01 1.644.196 3.27.658 4.81-.534.384-.683 1.54-.677 2.721a19.278 19.278 0 00.25 2.873c-.122 3.997-.064 10.424.183 12.104-.463 4.187-.457 7.486-.076 12.62-.083 1.364-.293 2.842-.365 4.347-.072 1.505-.01 3.036.46 4.511a7.214 7.214 0 00-.452 2.81c.035 1.122.293 2.508.883 4.397-.867 1.256-.713 2.157-.541 3.155.171.997.36 2.092-.434 3.738 1.13 4.121.637 6.248.852 8.078-.417 2.121-.281 3.606-.114 5.145.167 1.54.366 3.131.07 5.47.67 4.783.742 5.99.047 8.614.486.16.68.57.725 1.144.045.574-.06 1.314-.174 2.14-.113.823-.235 1.732-.222 2.645.012.913.16 1.83.582 2.668-.196 3.305.065 8.075.123 8.897-.5.422-.257 1.1-.047 2.043.21.944.385 2.155-.252 3.646.366 1.987.277 4.158.318 6.371.041 2.214.212 4.47 1.1 6.623-.603.725-.634 1.942-.526 3.282.11 1.34.357 2.8.313 4.007-.498 1.557-.186 2.303.01 2.803s.275.755-.688 1.33c.653 1.474.847 3.033.813 4.578-.034 1.546-.295 3.077-.55 4.502.394 1.314.245 3.517.151 5.774-.094 2.256-.133 4.566.477 6.092a13.565 13.565 0 00-.444 3.38c-.01 1.307.164 2.84.623 4.727-.488 2.302-.597 3.38-.578 4.584.02 1.204.17 2.535.2 5.346-.066 1.073 0 1.295.037 1.802-.069-.025-.11-.06-.213-.068-.173-.01-.356.01-.42.062-.064.056-.01.15.295.29.273-.067.289-.117.34-.168.026.35.016 1.062.027 1.304.028.598-.07 1.087-.697 2.567.597 1.91.6 4.434.55 6.611-.05 2.177-.152 4.008.23 4.535-.504 3.56.13 5.532-.454 9.496.44 1.555.106 2.562-.123 3.744-.23 1.183-.355 2.541.502 4.795-.05 1.32-.43 3.17-.643 5.15-.212 1.98-.257 4.09.36 5.934-.6 1.314-.562 3.954-.387 6.334.175 2.38.487 4.503.437 4.778.188 1.69-.132 2.677-.38 3.744-.25 1.067-.428 2.213.037 4.224-.485 2.013-.12 4.096.154 6.16.273 2.065.455 4.111-.395 6.05.62 2.607.476 5.834.344 9.175-.132 3.341-.252 6.797.42 9.865-.46 3.35.423 5.964.176 8.58.228.506-.066 2.081-.205 4.051-.14 1.97-.125 4.335.724 6.424-.484 1.276-.307 3.324-.183 5.357.123 2.034.195 4.054-.5 5.272.928 1.09 1.018 2.912.959 4.64-.06 1.725-.27 3.355.05 4.057-.174 2.195-.47 5.04-.458 7.938.01 2.898.328 5.85 1.382 8.258-.453.965-.45 2.795-.306 4.447-.068-.03-.122-.067-.237-.074-.346-.023-.734.072-.125.351.3-.073.336-.129.373-.183.075.805.125 1.711.282 2.16-.229 2.048-.47 3.906-.512 5.886-.043 1.98.112 4.083.678 6.618-.583 2.693-.105 2.397.035 5.543-.144.342-.024.588.03.857-.03-.062-.03-.124-.233-.19-.285.196-.355.318-.317.385.038.068.184.08.328.055.101-.017.162-.068.225-.115.039.17.01.365.02.55-.029.041-.091.042-.118.086-.468.784-.606 1.813-.101 3.016-.053 1.186-.145 1.665-.219 2.217-.054-.04-.017-.075-.139-.115-.57.394-.277.491.012.441.046-.01.06-.038.102-.053-.102.8-.128 1.5.209 3.053-.566 2.535-.72 4.635-.678 6.615.043 1.98.283 3.84.512 5.887-.157.45-.207 1.354-.282 2.16-.037-.054-.073-.11-.373-.183-.61.28-.22.374.125.351.115-.01.169-.043.237-.074-.143 1.653-.147 3.483.306 4.45-1.054 2.408-1.373 5.36-1.384 8.257-.012 2.898.286 5.741.46 7.936-.32.702-.11 2.332-.05 4.058s-.031 3.55-.96 4.64c.696 1.218.624 3.237.5 5.27-.123 2.034-.3 4.082.184 5.358-.849 2.09-.864 4.454-.724 6.424.139 1.97.433 3.544.205 4.05.247 2.616-.636 5.231-.176 8.58-.672 3.07-.552 6.527-.42 9.868.132 3.34.277 6.565-.344 9.173.85 1.938.668 3.985.395 6.05-.274 2.064-.64 4.147-.154 6.16-.465 2.01-.286 3.16-.038 4.226.25 1.067.569 2.054.381 3.744.05.275-.262 2.395-.437 4.775-.175 2.381-.213 5.02.387 6.334-.617 1.844-.572 3.956-.36 5.936.213 1.98.593 3.828.643 5.148-.857 2.254-.732 3.613-.502 4.795.23 1.183.564 2.19.123 3.745.585 3.963-.052 5.936.453 9.496-.383.527-.278 2.36-.229 4.537.05 2.177.047 4.7-.55 6.61.626 1.48.725 1.968.697 2.565-.011.242 0 .954-.027 1.305-.051-.05-.067-.1-.34-.166-.61.28-.221.372.125.35.103-.01.144-.043.213-.069-.035.508-.103.73-.037 1.803-.03 2.81-.18 4.142-.2 5.346-.02 1.204.09 2.281.578 4.584-.459 1.888-.63 3.42-.625 4.726a13.56 13.56 0 00.446 3.381c-.61 1.526-.571 3.836-.477 6.092.094 2.257.243 4.46-.15 5.773.254 1.425.515 2.96.549 4.504.034 1.546-.16 3.103-.813 4.577.963.575.884.83.688 1.33-.196.5-.508 1.246-.01 2.802.044 1.21-.204 2.67-.313 4.008-.108 1.34-.077 2.557.526 3.281-.888 2.154-1.059 4.41-1.1 6.623-.04 2.214.048 4.385-.318 6.372.637 1.491.461 2.702.252 3.646-.21.944-.453 1.622.047 2.045-.058.822-.32 5.59-.123 8.894-.423.84-.57 1.756-.582 2.668-.013.913.11 1.822.222 2.647.113.825.219 1.564.174 2.14-.045.573-.239.982-.725 1.143.695 2.625.624 3.83-.046 8.613.295 2.34.096 3.932-.07 5.471-.168 1.54-.305 3.024.112 5.145-.215 1.83.28 3.957-.851 8.078.795 1.645.605 2.74.434 3.738-.172.998-.326 1.898.54 3.154-.59 1.89-.847 3.275-.882 4.397a7.214 7.214 0 00.453 2.81c-.467 1.475-.533 3.007-.461 4.512.072 1.505.282 2.983.365 4.348-.38 5.133-.387 8.432.076 12.62-.247 1.68-.305 8.105-.183 12.102a19.278 19.278 0 00-.25 2.873c-.01 1.182.143 2.338.677 2.723-.462 1.54-.653 3.166-.658 4.81 0 .35.081.697.096 1.048-.047-.024-.01-.045-.082-.069-.57.395-.277.492.012.442.044-.01.058-.037.1-.05.065 1.19.125 2.385.323 3.55-.87 1.75-.866 3.133-.773 4.375.093 1.241.276 2.34-.238 3.523-.098 2.376-.158 5.428-.092 8.207.066 2.78.26 5.285.672 6.57-.49 1.822-.436 2.857-.31 3.766.125.908.323 1.69.126 3.004-.323.425-.188 1.651-.17 2.683.013-.06-.092-.139-.466-.23-.61.28-.224.374.123.352.165-.01.31-.05.343-.108.012.63-.155.981-.103 1.635.136 1.732.295 3.283-.131 3.242-.249 2.845-.062 4.077.082 4.982.144.906.245 1.483-.176 3.012.104.533-.107 1.663-.168 2.858-.06 1.194.03 2.454.737 3.248-.545.317-.8.74-.891 1.213-.09.471-.018.99.094 1.496.222 1.011.596 1.97.111 2.392.361 4.925.274 5.288-.582 9.522zm1.545-771.655c.585-.194.298-.392.01-.442-.29-.05-.58.047-.01.442zm.152 1260.69c.585.194.3.39.012.44-.289.05-.582-.045-.012-.44zm.166-1819.41c.585-.193.3-.39.012-.44-.289-.05-.582.046-.012.44zm4.16 905.281c.585-.193.3-.39.012-.44-.289-.05-.582.046-.012.44zm.32-655.36c.586-.193.301-.39.012-.44-.288-.05-.581.046-.011.44z"/></svg>