<svg viewBox="0 0 500 500" xmlns="http://www.w3.org/2000/svg"><path fill-rule="evenodd" clip-rule="evenodd" d="M330.684 442.609a15.004 15.004 0 01-2.426 3.172c-2.376 2.377-5.118 3.88-6.434 4.578-.999.53-2.746 1.372-3.345 1.661l-.204.098c-5.595 2.798-11.469 4.636-16.601 6.05a338.72 338.72 0 01-6.9 1.813h-.003l-.003.001c-2.413.614-4.583 1.165-7.199 1.932-36.674 10.754-77.733 8.028-112.245 3.941-.859-.101-1.77-.205-2.723-.313l-.001-.001c-5.229-.595-11.731-1.335-17.989-2.7-7.491-1.634-16.088-4.43-23.605-10.067-7.546-5.66-10.59-13.625-12.096-19.31-.777-2.936-1.28-5.812-1.661-8.145-.12-.733-.224-1.392-.32-1.996-.243-1.529-.432-2.712-.669-3.894-6.941-34.615-11.24-69.661-13.575-104.685a14.953 14.953 0 01.644-5.467 130.14 130.14 0 01-8.542-11.561c-1.577-2.407-4.08-6.354-5.19-11.292-1.274-5.675-.44-11.111 1.807-16.207 1.46-3.313 3.619-7.551 6.696-11.492 3.039-3.891 7.676-8.388 14.32-10.72 3.645-1.279 7.236-1.924 10.666-2.158-.07-.399-.136-.801-.198-1.205-.772-5.021-.502-10.848.938-16.29 1.382-5.225 4.432-12.232 11.048-16.946 6.453-4.598 14.281-6.382 20.379-7.095l.121-.014c-2.516-38.304 8.025-77.237 21.121-110.644 5.63-14.36 12.518-28.732 22.427-42.144.117-.158.329-.47.623-.9 1.617-2.367 5.688-8.33 9.804-12.196 2.598-2.44 7.114-6.022 13.328-7.1 7.416-1.288 14.157 1.457 19.078 6.341 10.408 10.332 15.372 22.088 17.69 34.858 2.997 16.51 4.169 33.607 5.27 49.669v.005c.386 5.625.763 11.123 1.206 16.424.2 2.395.412 4.739.631 7.057a542.679 542.679 0 0117.799-30.157c13.251-20.907 30.494-47.072 54.146-62.975 3.392-2.28 8.207-5.461 13.519-7.973 5.161-2.44 12.244-4.97 20.052-4.507 16.033.95 25.944 10.834 31.233 21.563 4.948 10.038 6.459 21.668 6.855 30.617.855 19.321-4.132 38.567-8.26 54.5-.369 1.427-.732 2.828-1.083 4.199-4.313 16.845-9.272 33.662-15.295 50.191-4.729 12.979-9.604 25.896-14.484 38.718-1.85 4.86-2.741 8.624-2.796 12.573-.033 2.381.515 5.135 1.79 9.083.301.933.784 2.308 1.342 3.896l.002.004c1.108 3.155 2.51 7.145 3.364 10.166 3.011 10.645 5.863 22.211 7.176 34.221 1.691 15.475-1.523 30.935-5.058 43.514-8.419 29.955-22.431 61.51-42.706 86.216a15.003 15.003 0 01-3.464 3.093zM223.05 69.336a103.36 103.36 0 001.875-2.652l.1-.145.7-1.01c2.013 3.517 3.324 7.502 4.202 12.34 2.675 14.737 3.678 29.348 4.743 44.867v.002c.41 5.97.829 12.076 1.356 18.374.594 7.101 1.374 14.653 2.134 22.022v.001l.001.002v.006c.563 5.448 1.115 10.794 1.574 15.783.054.594.109 1.205.164 1.832.522 5.877 1.171 13.174 3.361 20.613.215 8.097 6.846 14.595 14.995 14.595 8.284 0 15-6.715 15-15 0-.099.045-.852.807-2.76.364-.91.815-1.902 1.392-3.118l.472-.989.001-.003c.447-.934.972-2.032 1.422-3.02 9.38-20.627 20.244-40.421 32.34-59.506 13.646-21.529 27.874-42.256 45.547-54.139 3.346-2.25 6.524-4.292 9.604-5.748 3.23-1.528 4.935-1.711 5.454-1.68 2.479.147 4.202 1.031 6.099 4.88 2.238 4.54 3.466 11.296 3.793 18.678.646 14.614-3.21 29.61-7.553 46.494l-.883 3.438c-4.137 16.158-8.818 31.989-14.419 47.361-4.655 12.777-9.47 25.536-14.335 38.318-2.574 6.763-4.635 14.155-4.755 22.83-.099 7.222 1.595 13.627 3.239 18.718.905 2.8 1.619 4.783 2.25 6.532.776 2.154 1.424 3.952 2.139 6.479 2.848 10.069 5.177 19.766 6.22 29.313 1.059 9.691-.899 20.693-4.116 32.138-7.675 27.308-20.133 54.73-37.016 75.302a15.04 15.04 0 00-1.435 2.081c-.571.369-1.122.78-1.649 1.235l-.107.057a36.28 36.28 0 01-1.172.585l-.324.156c-.412.198-.952.458-1.411.688-2.966 1.483-6.614 2.709-11.156 3.96-1.43.395-3.304.878-5.317 1.398-3.126.806-6.589 1.7-9.258 2.482-30.372 8.906-66.13 6.981-100.276 2.938-1.095-.13-2.167-.253-3.219-.374h-.001c-5.246-.603-9.989-1.148-14.628-2.16-5.415-1.181-9.267-2.738-11.909-4.69-.125-.166-.619-.921-1.184-3.056-.388-1.466-.705-3.158-1.053-5.295a90.503 90.503 0 01-.126-.783l-.094-.592-.001-.005c-.271-1.703-.595-3.749-.962-5.578-5.052-25.193-8.662-50.724-11.096-76.424 8.648 5.54 17.996 10.079 27.777 13.289 11.914 3.911 25.8 6.889 41.085 2.91 5.135-1.336 14.123-3.791 21.213-9.22 2.799-2.143 4.802-4.619 6.222-7.164a95.762 95.762 0 006.829 4.95c-.49 1.435-1.106 3.108-1.86 5.138l-.075.204c-1.795 4.835-4.547 12.247-4.547 20.5 0 8.285 6.716 15 15 15 8.284 0 15-6.715 15-15 0-2.226.761-4.911 2.748-10.265l.396-1.059.005-.015.007-.019c1.688-4.501 4.224-11.263 4.743-18.525a14.965 14.965 0 00-.893-6.282c-.662-4.791-3.625-9.175-8.301-11.45-8.419-4.096-16.81-11.506-23.735-19.906-1.336-1.621-2.409-3.347-2.947-4.721a7.74 7.74 0 01-.152-.419c.629-1.159 2.056-3.078 4.704-5.322 3.131-2.654 6.644-4.628 9.152-5.542 5.067-1.847 11.925-1.677 19.788 1.009 7.784 2.659 15.136 7.334 20.264 12.319 7.073 6.877 13.39 14.767 19.213 23.337-.085-.126-.077-.112.112.197l.001.001.443.729.05.082c.413.681.967 1.593 1.436 2.336.222.352.56.881.911 1.382l.005.006c.125.179.545.777 1.116 1.434l.017.019c.199.23 1.088 1.256 2.447 2.257a15.038 15.038 0 005.572 2.558 15.008 15.008 0 0015.07-5.257c3.206-4.008 3.273-8.243 3.287-9.14v-.005a15.098 15.098 0 00-.279-3.135c-.209-1.073-.494-1.895-.588-2.167a19.238 19.238 0 00-.602-1.501 52.55 52.55 0 00-.97-2.025 14.98 14.98 0 00-2.646-3.737 34.94 34.94 0 00-.568-.895c-6.656-9.795-14.242-19.36-23.115-27.986-8.269-8.039-19.439-15.086-31.478-19.199-10.575-3.612-22.952-5.322-35.031-2.261-.179-.23-.365-.456-.56-.679-7.959-9.096-16.395-18.056-26.204-26.354l-1.025-.868c-6.702-5.684-16.325-13.844-28.018-18.644a15.15 15.15 0 00-.03-2.35c-2.963-32.844 6-68.25 18.858-101.049 5.099-13.006 10.85-24.744 18.624-35.267zm7.246-9.4c0 .003-.04.036-.118.087a.666.666 0 01.118-.087zM129.78 276.026c3.061.44 6.098 1.247 9.888 2.277 7.054 7.519 15.462 13.37 23.715 17.797 8.363 4.487 16.894 7.322 24.497 9.653a899.35 899.35 0 004.932 1.493l.014.005c4.228 1.271 8.084 2.43 11.834 3.751a14.936 14.936 0 00-1.01 8.385c.147.885.261 1.607.344 2.248-1.906.853-4.579 1.72-8.11 2.639-7.06 1.837-14.355.841-24.171-2.381-13.536-4.443-26.392-12.492-36.912-22.703-5.645-5.478-10.729-11.518-14.92-17.915a61.946 61.946 0 01-.313-.484c.719-1.453 1.456-2.679 2.176-3.601.442-.566.746-.85.888-.97 1.619-.505 3.825-.671 7.148-.194zm85.231-6.081c-6.39-7.119-12.752-13.612-19.745-19.526-10.47-8.856-18.401-15.005-26.35-16.194-2.688-.402-6.511-.545-10.181-.116-2.912.34-4.764.927-5.735 1.351a7.439 7.439 0 00-.172.566c-.178.67-.301 1.458-.345 2.265-.045.82.004 1.448.056 1.79 1.879 12.213 11.055 22.088 25.026 29.583 5.658 3.035 11.855 5.183 19.111 7.408 1.331.408 2.722.825 4.157 1.256l.007.002h.002c1.987.597 4.061 1.218 6.182 1.878 2.216-3.933 5.065-7.374 7.987-10.263zm17.954 24.597c.001 0 .004.018.006.053a.246.246 0 01-.006-.053zm-28.834 29.239v-.003l.001-.008a.04.04 0 01-.001.011z"/></svg>