<svg viewBox="0 0 500 500" xmlns="http://www.w3.org/2000/svg"><path fill-rule="evenodd" clip-rule="evenodd" d="M117.119 37.313c11.752-1.985 28.847-4.873 45.36 3.546 16.532 8.428 31.981 24.964 38.983 43.442 13.315-20.397 35.826-37.108 62.534-38.503 5.632-.294 10.991.166 15.657.71 1.464.17 2.769.335 3.983.493a15.016 15.016 0 014.053.46l.575.143c1.343.168 2.687.324 4.158.464 1.758.167 3.417.632 4.931 1.34 2.087.366 4.397.776 6.635 1.25 6.353 1.344 13.356 3.425 20.92 8.028 9.288 5.651 15.936 11.595 22.58 20.208 12.741 16.516 17.874 36.872 16.062 56.902-2.015 22.27-13.91 38.543-29.28 49.851 7.45.134 13.938.171 20.529-.556l-.015.001a.206.206 0 00.017-.003l.018-.002.061-.009c.129-.018.402-.057.891-.13l.578-.085c.612-.091 1.354-.201 2.157-.317 2.161-.314 4.963-.703 7.795-1.019 2.732-.306 5.925-.594 8.734-.613 1.335-.01 3.205.032 5.127.356.949.161 2.465.478 4.145 1.185 1.468.619 4.7 2.208 7.118 5.836 5.035 7.552 6.784 17.023 7.469 22.764l.303 2.531c.432 3.608.868 7.246 1.284 10.916.578-.631 1.158-1.264 1.74-1.897 13.043-14.197 27.268-29.262 30.885-32.924.035-.035.168-.178.381-.408 1.242-1.34 5.214-5.622 8.411-8.615 2.078-1.946 4.704-4.228 7.512-6.067 1.41-.923 3.227-1.976 5.332-2.784 1.985-.763 5.24-1.704 9.137-1.271 6.775.753 10.384 5.338 11.656 7.294 1.402 2.156 2.093 4.278 2.441 5.5.739 2.593 1.094 5.43 1.303 7.75.44 4.88.518 10.96.467 16.63-.053 5.782-.246 11.607-.422 16.14-.068 1.763-.135 3.354-.191 4.663l-.044 1.05a316.58 316.58 0 00-.071 1.787c-.015.416-.017.571-.018.571v-.01 132.417l.014.18.011.143c.027.331.078.96.11 1.556.038.719.078 1.847-.011 3.126-.081 1.174-.315 3.282-1.252 5.627-1.44 3.599-4.702 7.54-10.08 9.017-4.402 1.21-7.975.1-9.369-.416a16.726 16.726 0 01-4.961-2.926l-.037-.031a21.636 21.636 0 01-1.078-.982c-.33-.234-.755-.474-1.65-.981h-.001l-.001-.001c-.556-.315-1.293-.732-2.302-1.314-3.982-2.297-7.602-4.977-10.449-7.085l-.832-.615c-3.224-2.379-5.605-4.056-8.032-5.318-10.135-5.27-18.573-12.525-25.643-18.774-.204 9.496-.381 18.216-.381 22.466a14.93 14.93 0 01-2.982 8.976c-2.013 5.443-7.108 9.45-13.272 9.78-28.659 1.536-74.187 4.615-102.677 7.183-3.828.346-7.659.672-11.491.981 6.421 11.236 12.78 23.592 16.733 36.77 2.381 7.935-2.122 16.297-10.057 18.677-7.935 2.381-16.297-2.122-18.677-10.057-4.143-13.81-11.668-26.55-20.122-40.865l-1.325-2.243a1903.484 1903.484 0 01-34.818 1.644 14.914 14.914 0 01-3.14 2.298c-.094.12-.213.276-.363.478-.167.226-.348.476-.571.787l-.188.263c-.17.239-.368.515-.554.772-4.075 5.648-7.748 11.513-11.714 17.847-.92 1.47-1.856 2.965-2.817 4.488-.237.377-.824 1.301-1.576 2.487l-.027.042c-.883 1.393-1.991 3.14-3.032 4.785-.987 1.56-1.925 3.043-2.6 4.12-.291.464-.517.827-.672 1.077a15.047 15.047 0 01-4.254 4.814 27.075 27.075 0 01-2.443 1.455c-1.218.512-4.567 1.328-6.697 1.441-3.184-.403-9.206-3.376-11.672-5.93-1.42-2.266-2.808-6.376-3.016-8.036-.181-2.635.407-4.684.52-5.078l.011-.037c.324-1.147.726-2.015.803-2.181l.008-.016c.139-.303.26-.539.321-.656.198-.381.384-.696.421-.76l.004-.007c.127-.215.265-.441.366-.606.226-.367.537-.865.887-1.423.709-1.13 1.674-2.657 2.664-4.222l3.083-4.865c.732-1.153 1.292-2.036 1.525-2.406.84-1.332 1.694-2.696 2.563-4.085l.003-.005.004-.006c1.15-1.838 2.326-3.718 3.531-5.62-2.092.054-4.182.106-6.271.157-3.941.095-7.854.18-11.743.264h-.022l-.049.001h-.003c-16.849.364-33.268.718-49.672 1.921-4.511.331-9.529.832-14.777 1.355-9.252.923-19.22 1.917-28.392 2.179-4.8.138-9.899-.416-14.679-2.648-5.135-2.397-8.604-6.117-10.885-10.085-2.04-3.547-3.101-7.27-3.769-9.794a188.384 188.384 0 01-.81-3.19c-.347-1.402-.642-2.598-1.111-4.182-5.26-17.75-7.416-36.122-9.388-52.915v-.003c-.21-1.78-.416-3.543-.625-5.285l-.74-6.173-.003-.027C8.51 277.808 4 240.232 4 203c0-7.73 5.847-14.095 13.36-14.911A14.93 14.93 0 0125 186c13.944 0 27.928-.576 42.218-1.219l.297-.013c-10.506-7.773-17.991-18.767-22.543-30.79-9.847-26.007-3.659-54.611 10.475-76.28C66.98 60.016 84.883 45.32 106.413 40.056a14.96 14.96 0 015.507-1.911c1.581-.221 3.322-.515 5.199-.833zm256.722 261.104a15.109 15.109 0 00-3.984 13.495A15.468 15.468 0 00371 315.4a16.853 16.853 0 001.495 2.572 25.49 25.49 0 001.48 1.882c-.066 5.563-.252 14.169-.444 22.989l-.006.287v.007l-.001.024c-.122 5.661-.247 11.396-.336 16.313-28.505 1.669-66.557 4.314-91.757 6.587-40.526 3.654-81.605 5.169-122.684 6.166-3.761.091-7.553.172-11.37.254l-.03.001-.028.001c-16.9.363-34.272.736-51.527 2.002-6.325.463-12.029 1.045-17.491 1.602l-.007.001c-8.04.82-15.555 1.586-23.756 1.845a146.383 146.383 0 01-.605-2.375v-.003l-.343-1.369c-.347-1.376-.76-2.969-1.264-4.67-4.486-15.141-6.351-30.935-8.383-48.145l-.002-.01c-.198-1.682-.398-3.377-.603-5.086-.224-1.881-.45-3.76-.675-5.639l-.002-.016-.006-.051c-3.82-31.858-7.607-63.453-8.472-94.643 11.585-.181 23.08-.666 34.383-1.175l4.085-.185c12.957-.587 25.645-1.162 38.343-1.345 23.708-.343 47.458.34 71.528 1.121l6.563.215.031.001c21.833.716 43.953 1.442 66.106 1.442 10.355 0 20.362-.147 30.241-.293h.007c14.55-.214 28.825-.425 43.532-.154l1.25.024 1.133.022c8.209.163 17.334.344 26.705-.689.588-.065 1.415-.188 2.006-.275l.693-.103.845-.125.802-.117.375-.055c1.747-.253 3.78-.536 5.806-.777.189.981.355 2.037.489 3.154l.253 2.117v.001c1.785 14.923 3.423 28.615 3.699 42.731.102 5.191.22 10.332.338 15.442l.001.047c.165 7.201.329 14.339.444 21.467zm30.126 9.983c1.492 1.601 3.303 3.251 5.509 5.097.938.785 2.174 1.781 3.534 2.878l.005.003.003.003c2.498 2.014 5.417 4.368 7.693 6.379l.311.275c8.131 7.186 14.486 12.802 21.898 16.657a67.93 67.93 0 016.08 3.604V233.889c0-.833.088-2.929.192-5.424l.001-.029c.05-1.191.104-2.473.154-3.752.081-2.088.164-4.415.234-6.852a2437.687 2437.687 0 00-25.269 27.07c-6.489 7.063-12.631 13.853-17.024 18.907a197.757 197.757 0 00-4.072 4.809c.054 2.431.11 4.87.166 7.315v.002c.247 10.738.496 21.601.585 32.465zM158.994 183.629c8.199.209 16.369.465 24.502.729l6.553.214c6.619.217 13.212.433 19.788.63-7.205-8.518-12.521-18.532-15.932-28.745a93.89 93.89 0 01-1.589-5.265c-8.777 13.569-20.872 24.83-33.322 32.437zM129.768 65.835a14.935 14.935 0 01-7.34 2.159c-16.155.462-31.71 10.543-41.854 26.094-10.156 15.57-13.264 34.165-7.546 49.267 4.646 12.27 12.777 20.009 23.516 22.235 14.978 3.104 32.222.769 45.043-6.519 22.976-13.06 38.598-38.533 32.991-60.468-3.065-11.992-14.049-25.065-25.724-31.017-5.764-2.939-10.939-2.86-19.086-1.75zm153.136 11.326l-2.348-.303c-1.621-.21-3.126-.406-4.372-.552-4.083-.475-7.493-.712-10.624-.549-16.609.868-32.825 12.925-41.661 29.474-5.795 10.855-6.559 26.691-1.539 41.724 5.006 14.99 14.725 26.217 26.414 30.346 15.537 5.488 37.138.065 56.119-8.959 17.104-8.132 27.379-19.774 28.779-35.249 1.192-13.176-2.214-25.863-9.938-35.875-4.388-5.69-8.268-9.16-14.42-12.904-3.713-2.259-7.191-3.386-11.537-4.306-1.803-.382-3.564-.692-5.647-1.058l-2.056-.364c-2.179-.39-4.59-.84-7.17-1.425zm168.755 303.762l.05.053c-.18-.181-.231-.241-.053-.055l.003.002z" /></svg>