<svg viewBox="0 0 500 500" xmlns="http://www.w3.org/2000/svg"><path d="M237.926 95.89c.936.145 1.828.351 2.677.61a16.76 16.76 0 0110.064 3.062c7.019 4.945 8.051 12.936 7.446 17.846-.753 6.105-4.045 12.103-8.831 16.087-2.557 2.129-6.225 4.241-10.876 4.829-4.948.626-9.805-.64-13.878-3.428-6.103-4.175-8.845-10.481-9.225-16.244-.354-5.371 1.251-10.73 4.34-14.916 3.034-4.111 9.402-9.215 18.283-7.846zM210.952 166.719c2.063 8.023-2.769 16.2-10.792 18.263-9.686 2.491-19.243 3.649-28.558 4.231-8.268.517-15.389-5.767-15.906-14.035-.517-8.268 5.767-15.39 14.035-15.906 8.148-.51 15.695-1.477 22.958-3.345 8.023-2.063 16.199 2.769 18.263 10.792zM199.374 219.364c7.766-2.884 11.723-11.518 8.839-19.284-2.885-7.766-11.518-11.723-19.284-8.838-4.738 1.759-9.245 3.826-13.202 5.642l-.115.053c-3.945 1.81-7.365 3.38-10.796 4.702l-.64.2c-.616.192-1.514.475-2.438.792-.822.283-2.112.744-3.355 1.32-.54.251-1.728.82-2.995 1.721a15.876 15.876 0 00-3.028 2.804c-1.051 1.268-3.511 4.644-3.511 9.706 0 8.284 6.715 15 15 15 2.929 0 5.662-.84 7.971-2.291.408-.136.847-.275 1.285-.412l.279-.086.51-.159.017-.005c.117-.037.704-.22 1.249-.427 4.493-1.71 8.805-3.69 12.603-5.433l.479-.22c4.075-1.871 7.602-3.473 11.132-4.785z"/><path fill-rule="evenodd" clip-rule="evenodd" d="M156.13 37.08c41.925-29.347 95.924-25.456 138.141-10.523 27.095 9.584 50.267 24.521 70.834 43.817.404.38.818.766 1.241 1.161l.003.003c4.932 4.61 10.991 10.275 16.001 17.12 1.751 2.392 3.313 4.883 4.552 6.858l.003.005h.001l.373.595c1.411 2.245 2.467 3.874 3.561 5.281a14.932 14.932 0 013.03 7.218c1.93 7.204-1.765 14.885-8.853 17.763-1.404.569-2.918 1.374-5.07 2.606l-.66.38-.367.212c-1.825 1.055-4.18 2.415-6.575 3.595a649.986 649.986 0 00-12.899 6.542c4.544 3.501 8.836 7.111 13.077 10.859 2.687 2.373 5.92 4.544 9.932 6.978 1.112.675 2.378 1.422 3.724 2.218 2.998 1.772 6.398 3.781 9.399 5.748.561.367.896.565 1.376.848.296.174.647.381 1.14.681.462.28 1.376.84 2.319 1.564.794.61 2.809 2.219 4.381 4.926 1.962 3.378 2.844 7.821 1.477 12.395-1.114 3.726-3.311 6.075-4.327 7.07-1.934 1.894-4.307 3.306-5.469 3.997l-.046.028c-21.931 13.053-44.53 24.718-66.8 36.065l-6.741 3.431-.002.001c-20.071 10.213-39.799 20.251-59.036 31.132-2.419 1.369-4.806 2.706-7.162 4.027l-.014.007-.004.002c-4.287 2.403-8.472 4.748-12.563 7.117 7.574 3.969 15.281 7.412 23.446 11.06 5.592 2.497 11.399 5.091 17.526 8.016a7043.594 7043.594 0 0170.939 34.383c4.245 2.086 8.562 3.994 13.203 6.045l.037.017c1.198.529 2.417 1.068 3.662 1.622 5.905 2.628 12.228 5.526 18.382 8.95.898.5 1.725 1.078 2.476 1.722.543.162 1.083.357 1.617.585 7.617 3.255 11.154 12.07 7.898 19.688-27.546 64.459-89.629 103.549-168.027 103.784-25.218 2.326-53.776 1.501-79.651-8.963-20.877-8.443-39.312-24.559-51.67-42.09-10.633-15.085-16.407-32.232-21.179-47.178-3.623-11.349-6.881-23.093-8.754-35.689-5.322-35.788-6.29-72.975-2.611-109.033 3.914-38.36 9.725-78.19 25.595-115.836 7.857-18.636 17.9-34.484 30.073-49.924 7.915-10.04 17.121-20.527 29.061-28.886zm202.012 69.296l.186.258c-9.706 4.797-19.132 9.793-28.476 14.823-2.423 1.304-5.344 3.463-7.446 6.97-2.244 3.743-2.827 7.811-2.33 11.445.837 6.121 4.603 10.321 6.162 11.965 3.282 3.46 7.937 6.595 9.17 7.425.133.089.226.152.273.186 5.892 4.164 11.322 8.607 16.979 13.606 3.626 3.203 7.452 5.877 11.06 8.175-15.568 8.669-31.516 16.879-47.711 25.13l-6.759 3.441c-19.987 10.169-40.321 20.514-60.171 31.742a1774.05 1774.05 0 01-6.611 3.715l-.013.007-.038.021-.001.001-.002.001h-.001c-10.424 5.837-21.55 12.067-32 19.144l-.075.05-.001.001c-.291.195-1.162.779-1.942 1.389-.736.577-2.877 2.279-4.517 5.102-2.086 3.59-3.178 8.769-.995 14.108 1.733 4.237 4.792 6.622 6.261 7.648 3.674 2.568 7.466 4.95 11.114 7.118 11.858 7.048 24.916 12.893 37.001 18.303l.002.001c5.203 2.329 10.225 4.577 14.894 6.806a6982.77 6982.77 0 0170.636 34.236c4.841 2.378 9.861 4.596 14.556 6.671l.004.002.005.002.004.002c1.143.505 2.266 1.001 3.363 1.489 3.129 1.392 6.113 2.747 8.971 4.13-24.707 45.148-72.526 73.191-135.138 73.191h-.71l-.706.067c-23.203 2.199-46.539 1.139-66.277-6.843-14.704-5.947-28.804-17.954-38.397-31.563-7.676-10.889-12.306-23.936-17.121-39.018-3.403-10.657-6.126-20.666-7.66-30.977-4.963-33.379-5.859-68.06-2.439-101.574 3.859-37.817 9.349-73.911 23.394-107.228 6.598-15.65 15.102-29.197 25.988-43.004 7.33-9.298 14.378-17.053 22.706-22.883 30.658-21.46 73.194-20.166 110.933-6.817 22.739 8.043 42.409 20.616 60.312 37.412l.786.738c5.399 5.062 9.494 8.902 12.777 13.386zm24.522 86.398l-.031-.019.031.019zm-34.696-61.622l.004.004.008.009.007.008-.019-.021z"/></svg>