<svg viewBox="0 0 500 500" xmlns="http://www.w3.org/2000/svg"><path fill-rule="evenodd" clip-rule="evenodd" d="M204.593 88.747c15.863-8.323 35.605-11.405 59.153-8.645 8.039.942 16.179 3.749 23.23 7.86 6.969 4.062 13.833 9.968 18.152 17.781 7.886 14.265 13.622 35.071 10.666 52.733-3.367 20.12-17.653 35.608-34.6 44.622-17.065 9.077-38.463 12.586-59.127 7.603-17.341-4.182-33.073-17.286-42.898-32.044-9.682-14.545-16.269-34.943-7.867-53.77 6.581-14.747 17.325-27.762 33.291-36.14zm13.939 26.565c-9.164 4.809-15.592 12.294-19.834 21.801-2.422 5.427-1.486 14.509 5.444 24.92 6.789 10.198 16.76 17.527 24.958 19.504 13.085 3.156 26.998.93 38.006-4.925 11.125-5.918 17.673-14.56 19.1-23.088 1.516-9.06-1.636-22.96-7.334-33.267-.982-1.778-3.238-4.183-7.004-6.378-3.684-2.147-7.893-3.545-11.614-3.981-19.109-2.24-32.454.551-41.722 5.414z"/><path fill-rule="evenodd" clip-rule="evenodd" d="M178.969 366.142c-8.298 2.527-17.273 5.856-25.648 10.274-10.795 5.696-21.988 13.929-28.7 25.962-8.233 14.76-4.391 29.167 2.921 39.481 6.894 9.723 17.368 16.953 26.732 21.366 27.383 12.907 59.067 15.876 88.069 12.472 35.017-4.111 77.254-17.201 101.486-47.725 7.616-9.594 11.562-20.928 9.73-32.693-1.808-11.605-8.843-21.089-18.116-28.005-6.934-5.171-13.785-7.757-19.97-9.504-2.55-.721-5.148-1.34-7.443-1.886l-.614-.147-.446-.106-.452-.108c4.973-7.582 9.699-15.067 14.176-22.243 1.332-2.134 2.675-4.283 4.028-6.445l.012-.02c23.342-37.321 49.308-78.838 60.728-123.608 6.462-25.331 11.634-56.433 2.947-85.564-6.433-21.569-19.646-40.435-33.912-56.078-17.235-18.898-37.704-33.643-66.838-38.322-20.361-3.27-41.628-2.965-61.896.923-42.965 8.242-88.546 36.511-106.973 76.316-18.522 40.01-14.511 85.319-3.204 123.265a597.23 597.23 0 0045.859 111.45c5.576 10.422 11.395 20.745 17.524 30.945zm45.883 57.085a15.105 15.105 0 001.868 2.661c5.461 6.229 14.938 6.853 21.168 1.392 14.757-12.936 28.324-28.992 40.675-45.786a14.95 14.95 0 002.146.843c3.358 1.033 6.527 1.811 9.274 2.469l1.165.278.002.001c2.333.557 4.262 1.017 6.166 1.555 4.143 1.17 7.22 2.466 10.191 4.682 4.732 3.529 6.11 6.651 6.409 8.574.275 1.765.022 4.882-3.584 9.423-16.783 21.141-49.116 32.782-81.487 36.582-24.895 2.923-50.658.143-71.781-9.813-6.382-3.008-12.063-7.37-15.048-11.58-1.41-1.989-1.874-3.451-1.984-4.355-.086-.705-.052-1.653.789-3.16 2.708-4.856 8.178-9.653 16.499-14.043 8.155-4.302 17.733-7.525 26.804-9.934.553-.147 1.09-.322 1.611-.525a562.895 562.895 0 005.822 8.461c.452.642.943 1.353 1.47 2.117 3.09 4.472 7.425 10.747 12.313 15.719a14.941 14.941 0 009.512 4.439zm58.05-370.364c-16.924-2.718-34.668-2.461-51.487.765-36.375 6.979-72.129 30.788-85.401 59.457-14.215 30.706-11.925 67.702-1.677 102.095a567.258 567.258 0 0043.56 105.865c11.571 21.627 24.094 42.559 38.213 62.668.665.947 1.303 1.865 1.92 2.753l.007.008.009.015.001.001c2.958 4.254 5.436 7.817 8.127 10.684 21.831-21.716 41.415-51.48 59.068-79.774a7984.91 7984.91 0 013.267-5.233c24.021-38.45 47.659-76.29 57.884-116.375 6.189-24.26 9.512-48.633 3.267-69.576-4.65-15.593-14.682-30.567-27.329-44.435-14.212-15.584-28.958-25.63-49.429-28.918z"/></svg>