<svg xmlns="http://www.w3.org/2000/svg" xmlns:xlink="http://www.w3.org/1999/xlink" width="191"
      height="269"
	 viewBox="0 0 191 269">
<path d="M118.8,113c3.9,0.5,5.8,4.1,8.8,5.6c2.5,1.2,4.5,3.3,5.6,5.9c0.2,0.4,2.1,1.8,2.6,2c-2.2,6.5-5.4,12.6-9.4,18.1
	c-4.3-5.3-20.7-2-22.5-15.9c-0.1-1.3,0.5-2.7,0.9-4.1c0.1-0.5-0.1-4.7,1-5.2L118.8,113z M41.4,128.2c1.1-4.3,1.5-8.5-2.4-12.3
	c2.1-1.1,4.1-2.5,5.9-4c-1.7-1-3.7-1.6-5.7-1.6c0.2-0.1,0.3-0.2,0.5-0.2c-5.8,1.6-12.3-2.4-16.9-2.1c0.1,0.2,1,1.6,1.1,1.8l-6.5-1
	l-7,0.7c-2.5,9.3-2,20.2,6.7,24.9c0.8-0.8,5.9-1.8,6.8-0.9c0.4,0.4,0.8,0.9,1.2,0.9C31.7,134.4,37.3,134.2,41.4,128.2z M25.7,256.9
	c0,0,32.9,7.4,50.6,9s49.8-0.8,49.8-0.8s2.2-15-8.9-47.5s-23.8-31-23.8-31s-11.1,6.9-17.1,5.2c-6.1-1.8-14.6-10.9-14.6-10.9
	s-11.1,5-14.9,10.9C43.1,197.7,24.4,219.2,25.7,256.9z"/>
<path d="M84.6,268.5l15.9,0.1c11,0.4,18-1.8,27.3-2c1.9-4.4-0.5-14.9-0.8-19.5c-4.8-22.4-11.6-45.4-28.1-62.1
	c-1.3-1.1-2.5-2.7-4.6-1.3c-1.6,0.2-3.7-1.7-5.4-1.8c-3-0.2-2.7,2.4-0.6,3.8c-4,6.9-19.9,5-23.9-4.9c4.4-2.3,2.5-8.8,3.4-13
	c0-2.6-3.1-3.4-3.5-0.5c-1.4,23.1-9.9,2.2-29.6,41.3c-5.9,10.6-10.4,23-11.6,35.8c-0.1,1.5-0.9,11,0.4,13.4
	C30,263.8,73.1,265.7,84.6,268.5z M85.9,192.5c0.3,0,0.7,0,1,0.2c0.3,0.1,0.6,0.3,0.8,0.6c1.8,2.4,1.2,3.5-2.3,4.5
	C85.1,196,83.7,193.5,85.9,192.5L85.9,192.5z M76.9,193.4h3.9l1.3,5.9h-5.2C76.9,199.3,76.9,193.4,76.9,193.4z M71.1,191.9
	c1,0.9,1.7,1.2,1.7,1.7c0,2,0.9,4.6-1.2,5.8C69.6,197.4,71.2,195,71.1,191.9z M65.3,188.7c4.4,0.7,1.4,5.6,1.4,9l-4.9-3.9
	C63.2,191.8,64.2,190.3,65.3,188.7L65.3,188.7z M61.2,183.4c2,2.4,1.6,4-1.7,6.7C56.7,187.5,57.1,185.8,61.2,183.4L61.2,183.4z
	 M124.4,263.2c-3.6-0.2-7.3,0.2-10.8,1.2h3c-3.8-0.2-7.1,1-7.7-3.8c-1.5-3.8-0.9-9.1-4.5-11.5c-3.3,3.3,0.4,8.1,0.6,12.1
	c0.2,0.2,0.4,3.3-1.6,3.3c-3.5,0.1-6.9,1.3-10.5,0.3c-0.9-0.1-2.3,0.6-3.3,0.2c-2.7-0.2-5.5,0.6-8-0.5c-1.8,0.1-3.6-0.2-5.3-0.7
	c-10-1.2-19.7-1.8-29.6-3.8c0.3-3.9,0.2-7.6,2.1-11c0.7-2.6,2-7.7-2.5-5.8c-1.6,5.5-2.8,10.3-4.1,16.1c-3.4-0.8-6.6-1.6-9.9-2
	c-5.6-1.1-4.6-1.1-4.7-5.8c-0.2-6.6,1-13.7,1.3-20.3c2.3-5.5,4.6-11,6.9-16.5c5.9-8.9,10.1-18.8,17.7-26.5
	c3.7,6.5,8.2,10.7,14.2,14.8c15.8,1.8,21.2,0.1,32-11.6c15.2,18.2,20.9,41.5,25.5,64.6l0,0l-0.1,6h0.3L124.4,263.2z M67,142.8
	c-4.3,0.3-12-5.3-10.6-8.7c5.2-1.9,7.8,10.5,14.2,2.3c1.7-1.4,2.8-6.9,5.5-5.7C79,134.3,71,143,67,142.8z M63.2,118.3
	c-2.8-1.2-7.6-0.6-8.8-4c-0.3-1.1,1.1-1.7,2.7-1.4c2.3,1,10.5,0.6,10.5,3.3c-0.1,2.4-2.7,1.7-4.3,1.9L63.2,118.3z M104.8,71.1
	c5.9,1.3,10,7.3,11.3,13c0.3,1.2,0.4,2.6-1.1,3c-3,1.2-2.9-7.9-7.1-10.2c-1.2-0.9-2.6-1.6-4-2c-1.2-0.4-2.8,0.2-3-1.8
	C100.7,71.9,101.9,71.2,104.8,71.1z M98.4,89.1c0.2,6.2-6.5,5.6-7.1,0.7C91.1,85.1,98.6,84.6,98.4,89.1z M27.3,64.9
	c3.3-0.3,7.7,2.3,6.3,5.9c-0.7,1-1.7,0.3-2.6-0.3c-4.3-3.3-10.6-1.1-11.7,4.1C14.7,78.9,13.7,66,27.3,64.9z M24.8,84.6
	c2.2,0,3.3,0.9,3.3,2.8c0.2,4.3-6.4,2.7-6-0.7C22.1,85.2,22.9,84.6,24.8,84.6z"/>
<path d="M189.9,115.2c-1.7-5.1-4-1.1-4.7,2c-2.1,7.7-4.6,7.5-11.9,6.4c-9.1-2.4-18.1-4.3-25.5-10.7c5.4-3.3,12-5.7,13.3-12.5
	c0.3-4.1-0.1-8.2-1.2-12.2c-0.9-4.9-4.6-4.1-8.7-4.1c-1.8-13.7-4.1-27.1-8-40.4c-1.4-7.9-4.5-15.4-9-22.1
	C114.7-3.8,76.5-4.7,49.6,8.2C43.8,9.5,39.7,14,34.9,17c-5.2,3-9.6,6.9-12.2,12.4c-3.9,7.9-6.8,16.2-8.5,24.8
	c-0.3,1.5-0.7,5.2-0.8,6c2.9-1.5,6.1-3,9.4-2.9c0.3-0.8,1.8-4,2.7-5.4c3.5-5.2,7.6-10.1,10.9-15.5l0,0c1.5-1.2,3.1-0.9,4.7-0.6
	c9.3,1.8,18.5,3.6,27.8,5.4c1.9,0.2,3.6,1.2,4.8,2.6l0,0c3.3,1.4,2.5-1.6,6.6,0.1c9.4,2.7,18.8,5.2,28.3,7.5
	c7.4,2.4,17.9,2.5,22.4,9.5c0.2,4,0.2,7.9,0.2,11.9c0,0.6-0.2,2.5-0.1,3.5c1.2,4.6,1.4,8.8,1.5,14.2c0,0,0.6,0.4,0.6,0.5
	c0-0.1,2.5,9.4,7.3,11.8c-0.2,8-2.5,15.4-5.8,22.7l0,0c-6.7,20.4-22.9,37.7-45.7,37c-1.9-0.1-3.7-0.4-5.5-0.8
	c-14.5,1.1-29.1-4.2-41.8-10.4c-14.8-8.8-29.2-24.7-31.1-42.6c-2.2-1.9-4.5-4.6-6.4-6.4c0.8,1.6,2.3,4.9,2.5,6.7
	c4.9,35.8,41.7,54.5,74.7,57.2c0.7,4.7-2,13.8,1.9,16.6c3.8-3.8,0.6-11.4,2.2-16.5c32.6,0.7,47-20.7,56.3-49
	c2.4,9.1,2.2,20.6,11.8,25.2c7.1,3.7,15.2,4.9,23,3.5C193.3,143.6,189.9,127.3,189.9,115.2z M114.4,13.1l-0.5,4
	c-2-2.8-4.9-4.2-5.6-7.4c-2.9-2.1-2.9-2.1-5.1,0.5c-4.4-2.8-4.4-0.8-4.7,3.6c-1.1-1.5-1.7-3.5-3.9-4c-1.7-1.4-2.1-4.3-5.1-4.1
	c-1.1,0.8-1.6,2-2.3,3.1l-0.6-0.6c-3.7-0.5-7.7-3.9-9,1.4c-1.2-1.5-2.3-2.9-3.9-5c4.8-0.5,9.6-0.6,14.4-0.3
	c7.3-0.5,14.9,0.3,21.4,4.1c4.1,2.4,10.1,2.5,11.8,7.7C118.5,17.2,118.5,11.6,114.4,13.1z M156.5,89.8c1.7,9.4,2.4,14.6-8.1,18.1
	l-3.9-5.3C143.3,98.4,153.8,82,156.5,89.8z M183.5,138.8L183.5,138.8l-3.5-1.1c0.5-3.9-3.9-3.1-5.3-5.5c1.9-1.4,6.1,0.2,5.4-4
	l6.3-3.1C186.4,130,187.3,134.8,183.5,138.8z"/>
<path d="M131.1,75.1c-0.2-0.8-0.4-1.6-0.7-2.3c-6.4-16.8-27.8-16-42.8-15.3C72.4,58.8,67.1,76,65.2,88.7h-5
	c0.8-11.2-2.7-21.8-13.2-27c-2.1-1.1-4.8-1.1-6.4-3.4c-5.5-1.4-11.7-0.4-17.5-1.4c-0.1,0-0.3,0-0.4,0c-3.3-0.1-6.5,1.4-9.4,2.9
	c-0.1,0.1-0.2,0.1-0.3,0.2c-1,0.5-2.5,2.6-3.7,3.5c-3.6,3-6.2,7.1-7.3,11.7c-1.6,9-4,19.2,2,27.3c0.3,0.4,5.8,6.3,6.4,6.8
	c15.3,10.9,36.9,7.9,46.2-9.8c2.5-4.6,1.2-8.5,8.1-6.5c-0.7,17.2,15.4,26.5,30.9,26.9c18.9,2.4,34.6-11.3,37.4-28.9
	C133.1,90.4,132.4,79.7,131.1,75.1z M39.6,110c-14.1,6.4-36-3.6-36.1-20.3c0.9-7.3,0.8-21.7,9.6-23.9c7.7-7.9,19-5.1,28-2.3
	C64.4,69.6,59.7,103.3,39.6,110z M101.4,116.4c-14.3,1-34-5.4-32.7-22.8c0.6-12.2,4.8-31,19.4-32.5c15.5-0.4,33.1-1.3,40.1,15.5
	l-0.5-0.7c0.5,3.1,1.4,6.1,1.4,9.2C129.5,100.4,117.4,115.8,101.4,116.4z"/>
</svg>
